<?xml version="1.0" standalone="no"?>
<!DOCTYPE svg PUBLIC "-//W3C//DTD SVG 1.1//EN" "http://www.w3.org/Graphics/SVG/1.1/DTD/svg11.dtd" >
<!--
2013-9-30: Created.
-->
<svg>
<metadata>
Created by iconfont
</metadata>
<defs>

<font id="kpc-font" horiz-adv-x="1024" >
  <font-face
    font-family="kpc-font"
    font-weight="500"
    font-stretch="normal"
    units-per-em="1024"
    ascent="896"
    descent="-128"
  />
    <missing-glyph />
    
    <glyph glyph-name="alert" unicode="&#58927;" d="M512-54.857143A438.857143 438.857143 0 1 1 512 822.857143a438.857143 438.857143 0 0 1 0-877.714286z m0-73.142857A512 512 0 1 0 512 896a512 512 0 0 0 0-1024zM512 676.571429a36.571429 36.571429 0 0 1-36.571429-36.571429v-364.690286a36.571429 36.571429 0 0 1 73.142858 0V640A36.571429 36.571429 0 0 1 512 676.571429z m0-585.362286a45.714286 45.714286 0 1 1 0 91.428571 45.714286 45.714286 0 0 1 0-91.428571z"  horiz-adv-x="1024" />

    
    <glyph glyph-name="alarm" unicode="&#58928;" d="M575.414857 786.870857l438.198857-731.062857a72.777143 72.777143 0 0 0-25.746285-100.205714c-11.410286-6.729143-24.429714-10.24-37.668572-10.24H73.801143a73.435429 73.435429 0 0 0-73.801143 73.142857c0 13.092571 3.584 25.965714 10.386286 37.302857l438.125714 731.062857a74.166857 74.166857 0 0 0 126.902857 0z m-31.597714-89.234286a37.083429 37.083429 0 0 1-63.634286 0l-369.078857-621.714285a36.717714 36.717714 0 0 1 31.817143-55.149715h738.230857c6.582857 0 13.019429 1.755429 18.651429 5.12 17.554286 10.24 23.405714 32.621714 13.165714 50.029715l-369.152 621.714285zM512 604.672a36.571429 36.571429 0 0 0 36.571429-36.571429v-292.571428a36.571429 36.571429 0 0 0-73.142858 0v292.571428a36.571429 36.571429 0 0 0 36.571429 36.571429z m0-512.585143a54.857143 54.857143 0 1 0 0 109.714286 54.857143 54.857143 0 0 0 0-109.714286z"  horiz-adv-x="1024" />

    
    <glyph glyph-name="calendar" unicode="&#58929;" d="M292.571429 896v-73.142857h438.857142V896h73.142858v-73.142857h219.428571v-950.857143H0V822.857143h219.428571V896h73.142858z m658.285714-365.714286H73.069714L73.142857-54.857143h877.714286V530.285714z m-585.142857-365.714285v-73.142858H219.428571v73.142858h146.285715z m219.428571 0v-73.142858H438.857143v73.142858h146.285714z m219.428572 0v-73.142858H658.285714v73.142858h146.285715zM365.714286 384v-73.142857H219.428571V384h146.285715z m219.428571 0v-73.142857H438.857143V384h146.285714z m219.428572 0v-73.142857H658.285714V384h146.285715zM219.428571 749.714286H73.142857L73.069714 603.428571H950.857143V749.714286h-146.285714v-73.142857h-73.142858V749.714286H292.571429v-73.142857H219.428571V749.714286z"  horiz-adv-x="1024" />

    
    <glyph glyph-name="application" unicode="&#58930;" d="M433.225143 343.990857a36.571429 36.571429 0 0 0 36.571428-36.571428v-329.142858a36.571429 36.571429 0 0 0-36.571428-36.571428h-329.142857a36.571429 36.571429 0 0 0-36.571429 36.571428v329.142858a36.571429 36.571429 0 0 0 36.571429 36.571428h329.142857z m480.694857 0a36.571429 36.571429 0 0 0 36.571429-36.571428v-329.142858a36.571429 36.571429 0 0 0-36.571429-36.571428h-329.142857a36.571429 36.571429 0 0 0-36.571429 36.571428v329.142858a36.571429 36.571429 0 0 0 36.571429 36.571428h329.142857z m-517.266286-73.069714h-256v-256h256v256z m480.694857 0h-256v-256h256v256zM775.241143 849.773714l200.411428-200.411428a36.571429 36.571429 0 0 0 0-51.638857l-200.411428-200.411429a36.571429 36.571429 0 0 0-51.712 0l-200.411429 200.411429a36.571429 36.571429 0 0 0 0 51.712l200.411429 200.411428a36.571429 36.571429 0 0 0 51.712 0zM433.225143 824.685714a36.571429 36.571429 0 0 0 36.571428-36.571428v-329.142857a36.571429 36.571429 0 0 0-36.571428-36.571429h-329.142857a36.571429 36.571429 0 0 0-36.571429 36.571429v329.142857a36.571429 36.571429 0 0 0 36.571429 36.571428h329.142857z m316.196571-52.443428L600.722286 623.616l148.699428-148.626286 148.626286 148.626286-148.626286 148.626286z m-352.768-20.626286h-256v-256h256v256z"  horiz-adv-x="1024" />

    
    <glyph glyph-name="arrow-right" unicode="&#58931;" d="M292.571429 7.606857l456.411428 378.368-456.265143 374.125714 52.662857 62.756572L877.714286 386.340571 345.453714-54.857143z"  horiz-adv-x="1024" />

    
    <glyph glyph-name="arrow-expand" unicode="&#58932;" d="M127.853714 822.784L357.668571 593.481143a36.571429 36.571429 0 0 0 0-51.785143 36.790857 36.790857 0 0 0-51.931428 0l-232.374857 231.862857v-133.851428a36.644571 36.644571 0 0 0-73.362286 0V859.428571C0 879.616 16.457143 896 36.717714 896h220.16a36.644571 36.644571 0 1 0 0-73.216H127.853714z m771.437715 0h-132.169143a36.644571 36.644571 0 1 0 0 73.216h220.16c20.260571 0 36.717714-16.384 36.717714-36.571429v-219.721142a36.644571 36.644571 0 0 0-73.362286 0V770.413714l-227.474285-226.816a36.790857 36.790857 0 0 0-51.931429 0 36.571429 36.571429 0 0 0 0 51.712L899.364571 822.857143zM127.853714-54.784h129.024a36.644571 36.644571 0 1 0 0-73.216H36.717714A36.644571 36.644571 0 0 0 0-91.428571v219.721142a36.644571 36.644571 0 0 0 73.362286 0v-133.851428l232.448 231.862857a36.790857 36.790857 0 0 0 51.931428 0 36.571429 36.571429 0 0 0 0-51.785143l-229.888-229.302857z m771.437715 0l-227.986286 227.474286a36.571429 36.571429 0 0 0 0 51.712 36.790857 36.790857 0 0 0 51.931428 0l227.401143-226.816v130.706285a36.644571 36.644571 0 0 0 73.362286 0V-91.428571c0-20.260571-16.457143-36.644571-36.717714-36.644572h-220.16a36.644571 36.644571 0 1 0 0 73.216h132.169143z"  horiz-adv-x="1024" />

    
    <glyph glyph-name="arrow-left-circled" unicode="&#58933;" d="M512 896a512 512 0 1 0 0-1024A512 512 0 0 0 512 896z m0-73.142857a438.857143 438.857143 0 1 1 0-877.714286A438.857143 438.857143 0 0 1 512 822.857143z m133.339429-133.339429l51.858285-51.565714-266.752-268.214857 266.605715-265.216-51.565715-51.858286L326.948571 369.371429l318.390858 320.146285z"  horiz-adv-x="1024" />

    
    <glyph glyph-name="close" unicode="&#58934;" d="M932.132571 815.104l10.971429-10.971429a35.254857 35.254857 0 0 0 0-49.810285L572.708571 384l370.322286-370.322286a35.254857 35.254857 0 0 0 0-49.810285l-10.971428-10.971429a35.254857 35.254857 0 0 0-49.810286 0L512 323.291429l-370.322286-370.322286a35.254857 35.254857 0 0 0-49.810285 0l-10.971429 10.971428a35.254857 35.254857 0 0 0 0 49.810286L451.291429 384 80.896 754.322286a35.254857 35.254857 0 0 0 0 49.810285l10.971429 10.971429a35.254857 35.254857 0 0 0 49.810285 0L512 444.708571l370.322286 370.322286a35.254857 35.254857 0 0 0 49.810285 0z"  horiz-adv-x="1024" />

    
    <glyph glyph-name="arrow-right-circled" unicode="&#58935;" d="M512 896a512 512 0 1 0 0-1024A512 512 0 0 0 512 896z m0-73.142857a438.857143 438.857143 0 1 1 0-877.714286A438.857143 438.857143 0 0 1 512 822.857143zM378.660571 689.517714l318.537143-316.708571-318.390857-320.146286-51.858286 51.565714 266.752 268.288-266.605714 265.142858 51.565714 51.931428z"  horiz-adv-x="1024" />

    
    <glyph glyph-name="bill" unicode="&#58936;" d="M905.142857 854.381714c17.554286-0.292571 31.670857-14.482286 32.036572-31.963428v-876.836572a32.621714 32.621714 0 0 0-32.036572-31.963428h-768a31.963429 31.963429 0 0 0-32.036571 31.963428V822.418286c0 17.627429 14.336 31.963429 32.036571 31.963428z m-32.036571-64H169.179429v-812.763428h703.926857V790.381714z m-73.581715-682.861714a31.963429 31.963429 0 1 0 0-64H243.419429a31.963429 31.963429 0 1 0 0 64zM353.499429 732.818286c17.554286-0.365714 31.597714-14.482286 31.963428-32.036572v-44.763428c33.426286-5.851429 64-22.454857 87.04-47.396572a31.963429 31.963429 0 0 0 0-43.52l-10.898286-11.483428a24.941714 24.941714 0 0 0-23.698285-10.24 30.72 30.72 0 0 0-22.966857 10.24 79.36 79.36 0 0 1-58.294858 25.6c-10.898286 0-46.738286-2.56-46.738285-32.036572 0-17.92 11.556571-26.258286 39.716571-39.058285l52.443429-23.625143A128 128 0 0 0 492.982857 366.08a120.978286 120.978286 0 0 0-107.52-119.076571v-44.763429a31.963429 31.963429 0 1 0-64 0v45.421714a172.836571 172.836571 0 0 0-102.4 58.88 32.621714 32.621714 0 0 0 0 43.52l11.483429 11.556572a29.403429 29.403429 0 0 0 24.356571 10.24 31.963429 31.963429 0 0 0 23.04-11.556572c19.017143-22.674286 47.177143-35.84 76.8-35.84 13.458286 0 56.978286 3.218286 56.978286 39.716572 0 23.698286-8.996571 30.061714-43.52 46.08l-51.858286 23.04a124.123429 124.123429 0 0 0-88.356571 111.981714 111.981714 111.981714 0 0 0 93.476571 109.421714v46.08c0 17.700571 14.336 32.036571 32.036572 32.036572zM804.571429 301.348571a31.963429 31.963429 0 1 0 0-64H585.142857a31.963429 31.963429 0 1 0 0 64z m0 181.76a31.963429 31.963429 0 1 0 0-64H585.142857a31.963429 31.963429 0 1 0 0 64z m0 183.076572a31.963429 31.963429 0 1 0 0-64H585.142857a31.963429 31.963429 0 1 0 0 64z"  horiz-adv-x="1024" />

    
    <glyph glyph-name="change" unicode="&#58937;" d="M512 886.418286A503.003429 503.003429 0 0 0 1014.418286 384 502.418286 502.418286 0 1 0 512 886.418286z m0-64a438.418286 438.418286 0 1 1 0-876.836572A438.418286 438.418286 0 0 1 512 822.418286zM632.978286 731.428571a31.378286 31.378286 0 0 0 35.181714-7.021714l222.061714-221.403428a30.72 30.72 0 0 0 0-44.836572l-222.061714-225.28a33.28 33.28 0 0 0-23.04-8.996571h-12.141714a33.28 33.28 0 0 0-19.821715 30.134857V351.963429H378.88A31.963429 31.963429 0 0 0 346.843429 384v53.76L200.996571 290.523429l143.36-146.505143V198.948571c0 17.700571 14.262857 32.036571 31.963429 32.036572h128a31.963429 31.963429 0 1 0 0-64H410.916571v-103.058286c0-13.165714-7.826286-24.941714-19.894857-30.061714a29.403429 29.403429 0 0 0-12.141714 0 31.378286 31.378286 0 0 0-23.04 9.581714L133.778286 268.141714a30.72 30.72 0 0 0 0 44.836572l222.061714 222.061714a33.938286 33.938286 0 0 0 35.181714 7.021714c11.922286-5.266286 19.748571-17.042286 19.821715-30.061714v-96.036571h236.836571c17.700571 0 32.036571-14.262857 32.036571-31.963429v-53.76l145.92 147.236571L679.716571 623.908571v-54.418285a31.963429 31.963429 0 0 0-32.036571-31.963429h-128a31.963429 31.963429 0 1 0 0 64h93.403429v102.4a32.621714 32.621714 0 0 0 19.894857 27.501714z"  horiz-adv-x="1024" />

    
    <glyph glyph-name="cloud-download" unicode="&#58938;" d="M732.271177 91.428571a219.428571 219.428571 0 0 1 0 438.857143 219.428571 219.428571 0 1 1-438.857143 0 219.428571 219.428571 0 1 1 0-438.857143h36.571429a36.571429 36.571429 0 1 0 0-73.142857H293.414034a292.571429 292.571429 0 0 0-65.755428 577.755429 292.717714 292.717714 0 0 0 570.368 0A292.717714 292.717714 0 0 0 732.271177 18.285714h-36.571428a36.571429 36.571429 0 1 0 0 73.142857h36.571428z m-255.634286 50.468572V420.132571a36.205714 36.205714 0 1 0 72.411429 0v-278.089142l40.594286 40.594285a36.205714 36.205714 0 1 0 51.2-51.2l-102.4-102.473143a36.205714 36.205714 0 0 0-51.2 0l-102.4 102.4a36.205714 36.205714 0 0 0 51.2 51.2l40.594285-40.521142z"  horiz-adv-x="1024" />

    
    <glyph glyph-name="content-squared" unicode="&#58939;" d="M913.261714 829.44a36.571429 36.571429 0 0 0 36.571429-36.571429v-817.737142a36.571429 36.571429 0 0 0-36.571429-36.571429H110.738286a36.571429 36.571429 0 0 0-36.571429 36.571429V792.868571a36.571429 36.571429 0 0 0 36.571429 36.571429h802.523428z m-36.571428-73.069714H147.236571V11.702857h729.453715V756.370286zM299.885714 215.259429a43.885714 43.885714 0 1 0 0-87.771429 43.885714 43.885714 0 0 0 0 87.771429z m429.202286-7.314286a36.571429 36.571429 0 0 0 0-73.142857h-292.571429a36.571429 36.571429 0 1 0 0 73.142857h292.571429zM299.885714 427.885714a43.885714 43.885714 0 1 0 0-87.771428 43.885714 43.885714 0 0 0 0 87.771428z m429.202286-7.314285a36.571429 36.571429 0 0 0 0-73.142858h-292.571429a36.571429 36.571429 0 0 0 0 73.142858h292.571429z m0 212.626285a36.571429 36.571429 0 0 0 0-73.142857h-292.571429a36.571429 36.571429 0 1 0 0 73.142857h292.571429z m-429.202286 14.628572a43.885714 43.885714 0 1 0 0-87.771429 43.885714 43.885714 0 0 0 0 87.771429z"  horiz-adv-x="1024" />

    
    <glyph glyph-name="cloud" unicode="&#58940;" d="M732.271177 91.428571a219.428571 219.428571 0 0 1 0 438.857143 219.428571 219.428571 0 1 1-438.857143 0 219.428571 219.428571 0 1 1 0-438.857143h438.857143z m0-73.142857H293.414034a292.571429 292.571429 0 0 0-65.755428 577.755429 292.717714 292.717714 0 0 0 570.368 0A292.717714 292.717714 0 0 0 732.271177 18.285714z"  horiz-adv-x="1024" />

    
    <glyph glyph-name="arrow-up" unicode="&#58941;" d="M888.393143 91.428571L510.025143 547.84l-374.125714-456.265143-62.756572 52.662857L509.659429 676.571429 950.857143 144.310857z"  horiz-adv-x="1024" />

    
    <glyph glyph-name="arrow-move" unicode="&#58942;" d="M22.381714 366.08l169.618286-183.661714a31.963429 31.963429 0 0 1 54.272 22.674285 32.036571 32.036571 0 0 1-9.508571 22.747429l-119.661715 128h362.934857v-360.96l-128 119.661714a31.963429 31.963429 0 0 1-45.494857 0 32.621714 32.621714 0 0 1 0-45.421714l183.661715-168.96a30.72 30.72 0 0 1 43.593142 0l183.588572 163.84a32.621714 32.621714 0 0 1 0 45.421714 31.963429 31.963429 0 0 1-45.348572 0l-128-119.661714V355.84h360.96l-119.734857-128a31.963429 31.963429 0 0 1 0-45.421714c12.434286-12.214857 32.402286-12.214857 44.836572 0l169.618285 183.661714a31.963429 31.963429 0 0 1 0 43.52l-167.716571 183.661714a31.378286 31.378286 0 0 1-44.836571 0 30.72 30.72 0 0 1 0-44.763428l119.734857-128H544.036571V780.8l128-119.661714a31.378286 31.378286 0 0 1 45.348572 0 31.963429 31.963429 0 0 1 0 44.763428L533.869714 877.421714a31.963429 31.963429 0 0 1-43.593143 0l-183.588571-169.545143a31.963429 31.963429 0 0 1 22.674286-54.272 32.036571 32.036571 0 0 1 22.674285 9.435429l128 119.661714V419.84H119.076571l119.734858 128a30.72 30.72 0 0 1 0 44.763429 31.378286 31.378286 0 0 1-44.836572 0L22.381714 409.6a32.036571 32.036571 0 0 1 0-43.52z"  horiz-adv-x="1024" />

    
    <glyph glyph-name="code-download" unicode="&#58943;" d="M478.208 229.741714V637.805714a36.717714 36.717714 0 1 0 73.362286 0v-411.501714l94.793143 95.012571a36.644571 36.644571 0 1 0 51.931428-52.004571l-155.721143-156.013714a36.571429 36.571429 0 0 0-51.931428 0L334.994286 269.238857a36.790857 36.790857 0 0 0 51.931428 51.931429l91.282286-91.428572z m394.24-119.954285a36.644571 36.644571 0 1 0-63.488 36.790857l136.411429 236.690285-136.045715 236.105143a36.644571 36.644571 0 1 0 63.561143 36.790857l146.724572-254.756571a36.864 36.864 0 0 0-2.267429-40.228571l-144.822857-251.392zM79.725714 385.316571l136.411429-236.690285a36.644571 36.644571 0 1 0-63.561143-36.790857L7.753143 363.154286a36.864 36.864 0 0 0-2.267429 40.301714L152.137143 658.285714a36.644571 36.644571 0 1 0 63.634286-36.790857L79.725714 385.316571z"  horiz-adv-x="1024" />

    
    <glyph glyph-name="cloud-server" unicode="&#58944;" d="M679.716571 627.2c17.627429 0 31.963429-14.336 31.963429-32.036571v-657.261715a31.963429 31.963429 0 0 0-32.036571-31.963428l-348.16-1.974857a32.621714 32.621714 0 0 0-31.963429 32.036571V595.163429a32.621714 32.621714 0 0 0 32.036571 32.036571z m-32.036571-64H363.52v-593.261714h284.16V563.2z m-60.781714-476.16a31.963429 31.963429 0 1 0 0-64H423.716571a31.963429 31.963429 0 1 0 0 64zM503.515429 860.013714a305.883429 305.883429 0 0 0 307.346285-284.013714 273.261714 273.261714 0 0 0 199.68-256 267.483429 267.483429 0 0 0-123.538285-224.621714 31.378286 31.378286 0 0 0-44.763429 8.923428 32.036571 32.036571 0 0 0 9.581714 44.178286 205.458286 205.458286 0 0 1 94.72 171.52 209.92 209.92 0 0 1-174.08 203.483429 30.72 30.72 0 0 0-24.941714 33.938285 243.2 243.2 0 1 1-485.741714 0v-7.021714a31.963429 31.963429 0 0 0-23.698286-32.036571 208.676571 208.676571 0 0 1-160.621714-198.363429 205.458286 205.458286 0 0 1 94.72-173.421714 31.963429 31.963429 0 0 0-17.261715-58.88 31.378286 31.378286 0 0 0-17.92 5.778285 267.556571 267.556571 0 0 0-123.611428 226.523429A270.701714 270.701714 0 0 0 200.411429 571.538286 305.956571 305.956571 0 0 0 503.515429 860.013714z m83.382857-671.232a31.963429 31.963429 0 1 0 0-64H423.716571a31.963429 31.963429 0 1 0 0 64zM505.636571 433.298286a33.938286 33.938286 0 1 0-33.938285-33.28 33.28 33.28 0 0 0 33.865143 33.28z m44.105143 85.723428a31.963429 31.963429 0 1 0 0-64H460.8a31.963429 31.963429 0 1 0 0 64z"  horiz-adv-x="1024" />

    
    <glyph glyph-name="arrow-shrink" unicode="&#58945;" d="M790.080476 161.076762l223.690438-222.667018a38.451363 38.451363 0 0 0 0-54.533682 38.81687 38.81687 0 0 0-54.752986 0l-223.690438 222.740119v-138.234843a38.597566 38.597566 0 0 0-77.341335 0V199.674327c0 21.199421 17.325044 38.524464 38.670667 38.524465h232.243308a38.597566 38.597566 0 1 0 0-77.12203h-138.819654z m-567.267255-12.134841H85.236291a38.597566 38.597566 0 1 0 0 77.048928h232.243308c21.345624 0 38.743769-17.251942 38.743769-38.524464v-231.292989a38.597566 38.597566 0 0 0-77.487538 0v139.62377l-212.72522-211.994206a38.81687 38.81687 0 0 0-54.752987 0 38.451363 38.451363 0 0 0 0 54.606784l211.409395 210.532177z m579.548299 470.627137h137.430726a38.597566 38.597566 0 1 0 0-77.12203H707.548938a38.597566 38.597566 0 0 0-38.743768 38.524465V812.264482a38.597566 38.597566 0 0 0 77.487537 0v-139.550669l212.725221 211.921105a38.81687 38.81687 0 0 0 54.752986 0 38.451363 38.451363 0 0 0 0-54.533682l-211.409394-210.532178z m-579.621401 0L11.330725 830.101236a38.451363 38.451363 0 0 0 0 54.533682 38.81687 38.81687 0 0 0 54.752986 0l212.725221-211.921105v139.62377a38.597566 38.597566 0 0 0 77.487537 0v-231.36609a38.597566 38.597566 0 0 0-38.743768-38.524465H85.309393a38.597566 38.597566 0 1 0 0 77.12203h137.430726z"  horiz-adv-x="1025" />

    
    <glyph glyph-name="clone" unicode="&#58946;" d="M945.298286 841.581714c17.554286-0.292571 31.670857-14.482286 31.963428-31.963428v-618.861715a32.621714 32.621714 0 0 0-31.963428-32.036571h-209.261715v-195.876571a31.963429 31.963429 0 0 0-32.036571-31.963429H81.92a31.963429 31.963429 0 0 0-32.036571 32.036571V581.046857c0 17.700571 14.336 31.963429 32.036571 31.963429h209.261714V809.691429A32.621714 32.621714 0 0 0 323.291429 841.581714z m-276.48-292.425143H113.883429v-554.276571h554.934857V549.156571zM391.021714 469.065143c17.700571 0 32.036571-14.336 32.036572-32.036572v-133.12h140.8a31.963429 31.963429 0 1 0 0-64H423.058286v-133.12a31.963429 31.963429 0 1 0-64 0v133.12H218.916571a31.963429 31.963429 0 1 0 0 64h140.141715v133.12c0 17.700571 14.336 32.036571 31.963428 32.036572z m519.094857 308.443428H355.181714v-164.425142h345.6c17.700571 0 32.036571-14.336 32.036572-32.036572v-358.4h177.298285V777.581714z"  horiz-adv-x="1024" />

    
    <glyph glyph-name="cloud-servers" unicode="&#58947;" d="M771.876571 167.058286c17.627429 0 31.963429-14.336 31.963429-32.036572v-180.443428a31.963429 31.963429 0 0 0-32.036571-32.036572h-532.48a31.963429 31.963429 0 0 0-31.963429 32.036572v180.443428a32.621714 32.621714 0 0 0 32.036571 32.036572z m-32.036571-64H271.36v-116.516572h468.48V103.131429z m-340.48-24.941715a33.28 33.28 0 1 0 0-66.56 33.28 33.28 0 0 0 0 66.56z m295.058286-1.316571a31.963429 31.963429 0 1 0 0-64h-133.12a31.963429 31.963429 0 1 0 0 64z m-374.418286 1.316571a33.28 33.28 0 0 0 0-64 33.28 33.28 0 0 0 0 64zM503.515429 860.013714a305.883429 305.883429 0 0 0 307.346285-284.013714 273.261714 273.261714 0 0 0 199.68-256 267.483429 267.483429 0 0 0-123.538285-224.621714 31.378286 31.378286 0 0 0-44.763429 8.923428 32.036571 32.036571 0 0 0 9.581714 44.178286 205.458286 205.458286 0 0 1 94.72 171.52 209.92 209.92 0 0 1-173.421714 202.898286 32.621714 32.621714 0 0 0-25.6 34.523428l0.292571 15.798857a243.2 243.2 0 1 1-486.034285-15.798857v-7.021714a31.963429 31.963429 0 0 0-23.698286-32.036571 208.676571 208.676571 0 0 1-160.621714-198.363429 205.458286 205.458286 0 0 1 94.72-173.421714 31.963429 31.963429 0 0 0-17.261715-58.88 31.378286 31.378286 0 0 0-17.92 5.778285 267.556571 267.556571 0 0 0-123.611428 226.523429A270.701714 270.701714 0 0 0 200.411429 571.538286 305.956571 305.956571 0 0 0 503.515429 860.013714z m268.288-428.032c17.700571 0 32.036571-14.336 32.036571-31.963428V219.428571a31.963429 31.963429 0 0 0-32.036571-31.963428h-532.48a32.621714 32.621714 0 0 0-31.963429 31.963428V400.091429c0 17.627429 14.336 31.963429 32.036571 31.963428z m-31.963429-64H271.36V251.611429h468.48V367.908571z m-419.84-24.941714c18.358857 0 33.28-14.921143 33.28-33.28a33.938286 33.938286 0 0 0-33.28-33.28 33.28 33.28 0 0 0 0 66.56z m374.418286-1.316571a31.963429 31.963429 0 1 0 0-64h-133.12a31.963429 31.963429 0 1 0 0 64zM399.36 343.04c17.408-1.316571 30.72-15.872 30.72-33.28a33.28 33.28 0 0 0-64 0c0 18.358857 14.921143 33.28 33.28 33.28z"  horiz-adv-x="1024" />

    
    <glyph glyph-name="cart" unicode="&#58948;" d="M373.028571 41.179429a85.796571 85.796571 0 1 0 121.782858-120.832A85.796571 85.796571 0 0 0 373.028571 41.179429z m403.894858 18.944a85.796571 85.796571 0 1 0 65.316571-158.646858 85.796571 85.796571 0 0 0-65.316571 158.646858z m32.036571-58.221715v-1.901714a21.723429 21.723429 0 0 1-21.138286-19.163429 21.796571 21.796571 0 1 1 21.138286 21.065143z m-374.418286 0.658286a21.796571 21.796571 0 1 1 0-43.52 21.796571 21.796571 0 0 1 0 43.52zM214.381714 872.96A31.378286 31.378286 0 0 0 245.76 844.8l13.458286-131.803429h704c9.362286-0.219429 18.285714-4.388571 24.283428-11.556571a30.72 30.72 0 0 0 7.094857-25.6l-64.073142-431.396571a31.378286 31.378286 0 0 0-31.305143-27.501715H314.88l5.12-47.323428h643.218286a31.963429 31.963429 0 1 0 0-64H291.108571a31.963429 31.963429 0 0 0-31.305142 28.745143L185.636571 808.96H47.396571a32.036571 32.036571 0 0 0 0 64z m691.2-360.96H282.843429l25.014857-231.058286h563.858285l33.865143 231.058286z m20.48 136.996571H267.556571l7.68-72.996571h640l10.825143 72.996571z"  horiz-adv-x="1024" />

    
    <glyph glyph-name="delete" unicode="&#58949;" d="M621.568 91.428571a36.498286 36.498286 0 0 0-36.571429 36.571429V530.285714a36.498286 36.498286 0 1 0 73.142858 0v-402.212571a36.644571 36.644571 0 0 0-36.571429-36.790857z m-219.428571 0A36.498286 36.498286 0 0 0 365.714286 128V530.285714a36.498286 36.498286 0 1 0 73.142857 0v-402.212571a36.644571 36.644571 0 0 0-36.571429-36.790857zM987.428571 713.142857H804.571429v73.142857C804.571429 846.848 755.931429 896 695.808 896H329.069714A109.714286 109.714286 0 0 1 219.428571 786.285714v-73.142857H36.571429a36.498286 36.498286 0 1 1 0-73.142857H987.428571a36.498286 36.498286 0 1 1 0 73.142857zM292.571429 786.285714c0 20.041143 16.457143 36.571429 36.571428 36.571429h366.592c20.041143 0 35.766857-16.091429 35.766857-36.571429v-73.142857H292.498286v73.142857zM768-128H256.219429a109.714286 109.714286 0 0 0-109.714286 109.714286V530.724571a36.498286 36.498286 0 1 0 73.142857 0V-18.285714a36.571429 36.571429 0 0 1 36.571429-36.571429h512.073142c20.260571 0 36.571429 16.310857 36.571429 36.571429V529.408a36.498286 36.498286 0 1 0 73.142857 0V-18.285714a110.153143 110.153143 0 0 0-109.860571-109.714286z"  horiz-adv-x="1024" />

    
    <glyph glyph-name="fault-outline" unicode="&#58950;" d="M459.702857 383.122286L304.493714 538.331429a36.571429 36.571429 0 0 0 51.712 51.785142l155.209143-155.209142 155.136 155.209142a36.571429 36.571429 0 0 0 51.712-51.785142L563.2 383.268571 718.262857 227.913143a36.571429 36.571429 0 1 0-51.712-51.712L511.414857 331.337143 356.205714 176.274286a36.571429 36.571429 0 0 0-51.712 51.712l155.209143 155.136zM512-128A512 512 0 1 0 512 896a512 512 0 0 0 0-1024z m0 73.142857A438.857143 438.857143 0 1 1 512 822.857143a438.857143 438.857143 0 0 1 0-877.714286z"  horiz-adv-x="1024" />

    
    <glyph glyph-name="calculate" unicode="&#58951;" d="M905.142857 863.963429c17.700571 0 32.036571-14.262857 32.036572-31.963429v-907.556571a31.963429 31.963429 0 0 0-32.036572-31.963429H154.404571a31.963429 31.963429 0 0 0-31.963428 32.036571V829.44c0 17.700571 14.336 32.036571 31.963428 32.036571z m-35.181714-66.56H186.441143v-840.923429h683.52V797.476571zM528.091429 204.288a91.501714 91.501714 0 1 0 0-183.076571 91.501714 91.501714 0 0 0 0 183.003428z m201.581714 0a91.501714 91.501714 0 1 0 0-183.076571 91.501714 91.501714 0 0 0 0 183.003428z m-441.782857-6.582857a91.501714 91.501714 0 1 0 70.948571-168.740572 91.501714 91.501714 0 0 0-70.948571 168.740572z m35.401143-57.490286a27.501714 27.501714 0 1 1 0-55.003428 27.501714 27.501714 0 0 1 0 55.003428z m215.771428-1.609143a27.501714 27.501714 0 1 1-10.971428-52.809143 26.843429 26.843429 0 0 1 27.574857 26.916572 27.501714 27.501714 0 0 1-16.603429 25.892571z m201.654857 0a27.501714 27.501714 0 1 1-10.971428-52.809143 26.843429 26.843429 0 0 1 27.501714 26.916572 27.501714 27.501714 0 0 1-16.530286 25.892571zM528.091429 448a91.501714 91.501714 0 1 0 0-183.003429 91.501714 91.501714 0 0 0 0 183.003429z m201.581714 0a91.501714 91.501714 0 1 0 0-183.076571 91.501714 91.501714 0 0 0 0 183.076571z m-406.381714 1.316571a91.501714 91.501714 0 0 0 0-183.076571A92.16 92.16 0 0 0 231.862857 357.741714c0 50.541714 40.96 91.574857 91.501714 91.574857z m204.8-65.316571a27.501714 27.501714 0 1 1 0-55.076571v1.316571a27.501714 27.501714 0 0 1 27.574857 26.258286A27.501714 27.501714 0 0 1 528.091429 384z m-204.8 0a27.501714 27.501714 0 1 1 0-55.003429 27.501714 27.501714 0 0 1 0 55.003429z m406.381714 0a27.501714 27.501714 0 1 1 0-55.076571v1.316571a27.501714 27.501714 0 0 1 27.574857 26.258286A27.501714 27.501714 0 0 1 729.746286 384z m60.854857 368.64c17.627429 0 31.963429-14.336 31.963429-32.036571v-176.566858a32.621714 32.621714 0 0 0-31.963429-32.036571H265.142857a32.621714 32.621714 0 0 0-32.036571 32.036571V720.676571c0 17.627429 14.336 31.963429 32.036571 31.963429z m-32.036571-64H297.106286l-1.243429-112.64h462.701714v112.64z"  horiz-adv-x="1024" />

    
    <glyph glyph-name="arrow-swap" unicode="&#58952;" d="M805.302857 259.510857a35.254857 35.254857 0 0 0 0 50.614857 37.229714 37.229714 0 0 0 51.785143 0l155.355429-151.844571a35.254857 35.254857 0 0 0-3.145143-53.394286l-152.429715-148.918857a37.229714 37.229714 0 0 0-51.785142 0 35.254857 35.254857 0 0 0 0 50.614857l90.038857 87.990857H254.025143A34.377143 34.377143 0 0 0 219.428571 130.121143c0 19.748571 14.409143 35.986286 34.596572 35.986286h646.802286L805.302857 259.510857zM126.317714 598.454857l91.721143-89.673143c14.336-13.897143 14.336-36.571429 0-50.614857a37.229714 37.229714 0 0 0-51.785143 0L13.897143 607.158857a35.254857 35.254857 0 0 0-3.145143 53.394286l155.428571 151.844571a37.229714 37.229714 0 0 0 51.712 0c14.336-13.970286 14.336-36.644571 0-50.614857L124.050286 669.988571h643.657143c20.187429 0 36.571429-16.018286 36.571428-35.766857s-16.384-35.84-36.571428-35.84H126.244571z"  horiz-adv-x="1024" />

    
    <glyph glyph-name="download" unicode="&#58953;" d="M121.782857 222.061714c16.969143 0 31.012571-13.165714 32.036572-30.061714v-218.258286H902.582857V185.563429c0 17.700571 14.336 32.036571 32.036572 32.036571 17.554286-0.365714 31.597714-14.482286 31.963428-32.036571v-243.785143a32.621714 32.621714 0 0 0-32.036571-32.036572H121.782857a31.963429 31.963429 0 0 0-32.036571 32.036572V190.098286c0 17.627429 14.336 31.963429 32.036571 31.963428zM528.164571 844.141714a31.963429 31.963429 0 0 0 33.28-31.963428v-664.941715L762.441143 332.8a31.963429 31.963429 0 0 0 54.272-22.674286 31.963429 31.963429 0 0 0-9.508572-22.747428l-256-234.934857a32.621714 32.621714 0 0 0-43.52 0l-256 234.934857a32.182857 32.182857 0 0 0 43.52 47.323428l200.996572-185.563428V812.178286c0 17.627429 14.336 31.963429 31.963428 31.963428z"  horiz-adv-x="1024" />

    
    <glyph glyph-name="information" unicode="&#58954;" d="M512 896a512 512 0 1 0 0-1024A512 512 0 0 0 512 896z m0-73.142857a438.857143 438.857143 0 1 1 0-877.714286A438.857143 438.857143 0 0 1 512 822.857143z m73.142857-292.571429v-365.714285h73.142857v-73.142858H475.428571V457.142857h-73.142857V530.285714H585.142857z m0 146.285715v-73.142858H475.428571V676.571429H585.142857z"  horiz-adv-x="1024" />

    
    <glyph glyph-name="internet" unicode="&#58955;" d="M512 886.418286A502.418286 502.418286 0 1 1 1014.418286 384 503.003429 503.003429 0 0 1 512 886.418286z m437.101714-470.454857h-136.338285a647.021714 647.021714 0 0 1-113.225143 363.52 439.661714 439.661714 0 0 0 249.563428-363.52zM479.963429 817.956571v-401.92h-204.8c8.338286 203.556571 96.036571 373.174857 204.8 401.92z m0-465.92v-401.846857c-108.763429 28.745143-196.461714 198.363429-204.8 401.92h204.8z m64-401.846857V352.036571h204.8c-8.265143-203.556571-95.963429-373.174857-204.8-401.92z m0 465.92V817.956571c108.836571-28.818286 196.534857-198.436571 204.8-401.92h-204.8z m-219.428572 363.52a647.021714 647.021714 0 0 1-113.371428-363.52H74.971429a439.661714 439.661714 0 0 0 249.563428 363.52zM74.825143 351.963429h136.338286a650.898286 650.898286 0 0 1 113.225142-364.251429 440.32 440.32 0 0 0-249.563428 364.251429z m624.64-364.251429a650.898286 650.898286 0 0 1 113.298286 364.251429h136.265142a440.32 440.32 0 0 0-249.563428-364.251429z"  horiz-adv-x="1024" />

    
    <glyph glyph-name="edit" unicode="&#58956;" d="M601.6 578.413714l-271.36-271.36L433.737143 203.702857l413.769143 413.769143-103.497143 103.424-90.697143-90.697143 103.277714-103.204571-51.712-51.712-103.277714 103.204571zM877.714286-18.285714V450.194286a36.571429 36.571429 0 1 0 73.142857 0V-54.857143a73.142857 73.142857 0 0 0-73.142857-73.142857H73.142857a73.142857 73.142857 0 0 0-73.142857 73.142857V749.714286a73.142857 73.142857 0 0 0 73.142857 73.142857h511.707429a36.571429 36.571429 0 0 0 0-73.142857H109.714286a36.571429 36.571429 0 0 1-36.571429-36.571429v-731.428571a36.571429 36.571429 0 0 1 36.571429-36.571429h731.428571a36.571429 36.571429 0 0 1 36.571429 36.571429z m-444.635429 119.149714l-220.672-59.245714a36.571429 36.571429 0 0 0-44.836571 44.763428l59.392 221.257143 0.219428-0.219428 490.934857 490.934857a36.571429 36.571429 0 0 0 51.712 0l155.136-155.136a36.571429 36.571429 0 0 0 0-51.712L433.737143 100.205714l-0.658286 0.658286z m-202.313143 27.282286a18.285714 18.285714 0 0 1 23.552-23.552l127.853715 47.908571L278.674286 256l-47.981715-127.853714zM433.078857 100.864l0.585143 0.146286-206.482286 206.409143-0.365714-0.292572 206.262857-206.262857z"  horiz-adv-x="1024" />

    
    <glyph glyph-name="search" unicode="&#58957;" d="M438.857143 18.285714c-201.654857 0-365.714286 164.059429-365.714286 365.714286s164.059429 365.714286 365.714286 365.714286 365.714286-164.059429 365.714286-365.714286-164.059429-365.714286-365.714286-365.714286z m570.953143-31.378285l-203.483429 157.696A435.492571 435.492571 0 0 1 877.714286 384 438.857143 438.857143 0 0 1 0 384a438.857143 438.857143 0 0 1 438.857143-438.857143 437.101714 437.101714 0 0 1 322.340571 141.750857l203.702857-157.842285 44.909715 57.856z"  horiz-adv-x="1024" />

    
    <glyph glyph-name="code-working" unicode="&#58958;" d="M1017.223314 361.398857l-144.018285-252.123428a36.278857 36.278857 0 0 0-49.810286-13.531429 37.083429 37.083429 0 0 0-13.385143 50.395429l135.68 237.494857-135.314286 236.909714a37.083429 37.083429 0 0 0 13.312 50.395429 36.278857 36.278857 0 0 0 49.883429-13.531429l145.993143-255.561143a37.229714 37.229714 0 0 0-2.267429-40.448zM79.312457 383.634286l135.68-237.494857a37.083429 37.083429 0 0 0-13.385143-50.395429 36.278857 36.278857 0 0 0-49.883428 13.531429L7.632457 361.325714a37.229714 37.229714 0 0 0-2.267428 40.448l145.993142 255.561143a36.278857 36.278857 0 0 0 49.810286 13.531429c17.481143-10.24 23.405714-32.768 13.385143-50.468572l-135.314286-236.836571z m230.4-55.588572a55.076571 55.076571 0 0 0-54.857143 55.369143c0 30.573714 24.576 55.369143 54.857143 55.369143 30.208 0 54.710857-24.795429 54.710857-55.369143a55.076571 55.076571 0 0 0-54.784-55.296z m405.650286 0a55.076571 55.076571 0 0 0-54.710857 55.296c0 30.573714 24.502857 55.296 54.710857 55.296 30.281143 0 54.784-24.722286 54.784-55.296a55.076571 55.076571 0 0 0-54.784-55.369143z m-204.361143 1.316572a55.076571 55.076571 0 0 0-54.784 55.296c0 30.573714 24.502857 55.369143 54.784 55.369143 30.208 0 54.710857-24.795429 54.710857-55.369143a55.076571 55.076571 0 0 0-54.710857-55.296z"  horiz-adv-x="1026" />

    
    <glyph glyph-name="heart" unicode="&#58959;" d="M787.748571 896c-58.587429 0-111.981714-26.331429-153.234285-69.046857L634.294857 827.245714l-2.633143-3.291428-23.698285-28.672L512 678.985143l-95.963429 116.297143-23.698285 28.672L389.705143 827.245714l-0.219429-0.292571C346.916571 871.424 292.571429 895.926857 236.324571 896 105.764571 896 0 767.780571 0 609.645714 0 522.825143 31.963429 445.293714 82.285714 392.777143L512-128l429.714286 520.777143C994.011429 447.049143 1024 526.262857 1024 609.572571 1024 767.780571 918.235429 896 787.748571 896"  horiz-adv-x="1024" />

    
    <glyph glyph-name="content" unicode="&#58960;" d="M121.782857 124.342857a43.885714 43.885714 0 1 0 0-87.771428 43.885714 43.885714 0 0 0 0 87.771428z m788.48-7.314286a36.571429 36.571429 0 1 0 0-73.142857H270.189714a36.571429 36.571429 0 1 0 0 73.142857h640.219429zM121.856 427.885714a43.885714 43.885714 0 1 0 0-87.771428 43.885714 43.885714 0 0 0 0 87.771428z m788.48-7.314285a36.571429 36.571429 0 1 0 0-73.142858H270.189714a36.571429 36.571429 0 0 0 0 73.142858h640.219429zM121.856 726.308571a43.885714 43.885714 0 1 0 0-87.771428 43.885714 43.885714 0 0 0 0 87.771428z m788.48-7.314285a36.571429 36.571429 0 1 0 0-73.142857H270.189714a36.571429 36.571429 0 1 0 0 73.142857h640.219429z"  horiz-adv-x="1024" />

    
    <glyph glyph-name="cut" unicode="&#58961;" d="M707.48404 182.053057L158.418076 835.126469a36.395313 36.395313 0 1 0 55.869358 46.825232l553.442154-658.397776A182.195374 182.195374 0 0 0 1021.110985 55.799977a182.195374 182.195374 0 0 0-182.341247-181.976565c-100.652369 0-182.341247 81.470069-182.341247 181.976565 0 49.086264 19.401109 93.577528 51.055549 126.25308z m131.285698-235.439019c60.391421 0 109.404748 48.867454 109.404748 109.185939 0 60.318485-49.013327 109.258875-109.404748 109.258876s-109.404748-48.867454-109.404749-109.258876c0-60.245548 49.013327-109.185939 109.404749-109.185939zM313.189326 182.563613c31.87325-32.821425 51.493168-77.458562 51.493169-126.763636a182.195374 182.195374 0 0 0-182.341248-181.976565c-100.652369 0-182.341247 81.470069-182.341247 181.976565a182.195374 182.195374 0 0 0 252.652032 168.045694l161.335536 191.822992a36.468249 36.468249 0 0 0 55.869358-46.825232L313.189326 182.563613zM182.341247-53.385962c60.391421 0 109.404748 48.867454 109.404749 109.185939 0 60.318485-49.013327 109.258875-109.404749 109.258876S72.936499 116.191398 72.936499 55.799977c0-60.245548 49.013327-109.185939 109.404748-109.185939z m642.570556 933.587187a36.468249 36.468249 0 0 0 55.942295-46.752296L622.877701 526.678015a36.468249 36.468249 0 0 0-55.869358 46.752295L824.98474 880.201225z"  horiz-adv-x="1024" />

    
    <glyph glyph-name="money-square" unicode="&#58962;" d="M905.142857 854.381714c17.700571 0 32.036571-14.336 32.036572-31.963428v-876.836572a31.963429 31.963429 0 0 0-32.036572-31.963428H137.801143a32.621714 32.621714 0 0 0-32.036572 31.963428V822.418286A32.621714 32.621714 0 0 0 137.142857 854.308571z m-31.378286-64H169.764571v-812.763428h704V790.381714z m-543.670857-60.928c8.557714 0 16.749714-3.364571 22.674286-9.508571L533.942857 534.454857l192 186.221714a32.036571 32.036571 0 0 0 44.763429-45.348571L573.586286 483.108571h227.254857c17.627429 0 31.963429-14.336 31.963428-31.963428a32.621714 32.621714 0 0 0-31.963428-32.036572H565.906286v-123.465142h234.934857c17.554286-0.365714 31.670857-14.482286 31.963428-32.036572a31.963429 31.963429 0 0 0-31.963428-32.036571H565.906286v-191.926857a32.621714 32.621714 0 0 0-31.963429-32.036572 31.963429 31.963429 0 0 0-32.036571 32.036572V231.716571H265.142857a31.963429 31.963429 0 1 0 0 64h236.763429v122.88H265.142857a31.963429 31.963429 0 1 0 0 64h234.203429L307.346286 674.596571a32.621714 32.621714 0 0 0 0 45.348572 32.036571 32.036571 0 0 0 22.747428 9.508571z"  horiz-adv-x="1024" />

    
    <glyph glyph-name="logout" unicode="&#58963;" d="M768.658286 758.418286a31.963429 31.963429 0 0 0 44.763428 5.12 485.083429 485.083429 0 1 0-602.258285 0 31.963429 31.963429 0 0 0 44.836571-5.12 31.378286 31.378286 0 0 0-4.461714-44.836572A420.352 420.352 0 0 1 114.614857 245.028571a421.083429 421.083429 0 1 1 659.163429 468.553143 31.378286 31.378286 0 0 0-5.12 44.836572zM512 849.92c17.700571 0 32.036571-14.336 32.036571-31.963429V419.108571a31.963429 31.963429 0 1 0-64 0V817.956571c0 17.627429 14.262857 31.963429 31.963429 31.963429z"  horiz-adv-x="1024" />

    
    <glyph glyph-name="cloud-upload" unicode="&#58964;" d="M732.271177 91.428571a219.428571 219.428571 0 0 1 0 438.857143 219.428571 219.428571 0 1 1-438.857143 0 219.428571 219.428571 0 1 1 0-438.857143h36.571429a36.571429 36.571429 0 1 0 0-73.142857H293.414034a292.571429 292.571429 0 0 0-65.755428 577.755429 292.717714 292.717714 0 0 0 570.368 0A292.717714 292.717714 0 0 0 732.271177 18.285714h-36.571428a36.571429 36.571429 0 1 0 0 73.142857h36.571428zM549.04832 332.653714v-278.162285a36.205714 36.205714 0 1 0-72.411429 0V332.653714l-40.594285-40.594285a36.205714 36.205714 0 1 0-51.2 51.2l102.4 102.4a36.205714 36.205714 0 0 0 51.2 0l102.4-102.4a36.205714 36.205714 0 0 0-51.2-51.2l-40.594286 40.594285z"  horiz-adv-x="1024" />

    
    <glyph glyph-name="lock" unicode="&#58965;" d="M786.724571 470.308571V645.558857c0 96.768-81.334857 175.177143-181.76 175.177143H423.204571C322.779429 820.736 241.371429 742.4 241.371429 645.558857V470.308571h545.353142z m76.361143-0.950857c48.493714 0 87.771429-38.253714 87.771429-85.357714v-426.642286c0-47.177143-39.277714-85.357714-87.771429-85.357714H160.914286c-48.493714 0-87.771429 38.180571-87.771429 85.357714V384c0 47.104 39.277714 85.357714 87.771429 85.357714V640C160.914286 781.385143 278.820571 896 424.228571 896h175.542858c145.408 0 263.314286-114.614857 263.314285-256v-170.642286z m-670.866285-68.534857a45.641143 45.641143 0 0 1-45.787429-45.568v-364.178286c0-25.161143 20.48-45.494857 45.787429-45.494857H833.828571a45.641143 45.641143 0 0 1 45.860572 45.494857v364.251429a45.641143 45.641143 0 0 1-45.860572 45.494857H192.365714zM475.428571 174.372571a73.142857 73.142857 0 1 0 73.142858 0v-111.396571a36.571429 36.571429 0 1 0-73.142858 0V174.372571z"  horiz-adv-x="1024" />

    
    <glyph glyph-name="corporate" unicode="&#58966;" d="M643.876571 855.259429a32.475429 32.475429 0 0 1-45.494857 0L512 760.173714 425.618286 855.259429a32.475429 32.475429 0 0 1-45.494857 0L42.934857 496.64a33.572571 33.572571 0 0 1-9.728-23.771429c0-8.996571 3.510857-17.554286 9.654857-23.771428l448-475.428572c5.851429-6.436571 13.897143-10.166857 22.381715-10.24 8.704 0.073143 16.969143 3.730286 23.04 10.24l337.334857 357.961143 108.105143 115.419429a33.572571 33.572571 0 0 1 9.728 23.771428 33.572571 33.572571 0 0 1-9.728 23.771429L643.803429 855.186286z m117.028572-543.378286l-138.24 146.066286a31.305143 31.305143 0 0 1-46.08 0.658285 36.059429 36.059429 0 0 1-0.585143-48.932571l138.24-146.651429-34.596571-37.376-152.868572 163.693715a31.085714 31.085714 0 0 1-22.747428 10.020571 31.085714 31.085714 0 0 1-22.747429-10.020571 35.474286 35.474286 0 0 1 0-47.542858l154.258286-163.693714-35.84-38.765714L423.058286 326.948571a31.085714 31.085714 0 0 1-22.674286 10.020572 31.085714 31.085714 0 0 1-22.820571-10.020572 36.205714 36.205714 0 0 1 0-48.274285l176.64-186.733715-42.203429-44.836571-401.261714 425.837714 292.425143 310.418286L804.571429 356.717714l-43.52-44.836571z m88.356571 94.427428L557.421714 715.337143l64 67.949714 292.498286-310.418286-64.658286-66.56z"  horiz-adv-x="1024" />

    
    <glyph glyph-name="truth-none" unicode="&#58967;" d="M924.379429 688.201143l52.955428-50.468572-585.142857-613.229714L46.372571 396.434286l53.540572 49.737143 292.937143-315.026286z"  horiz-adv-x="1024" />

    
    <glyph glyph-name="resize" unicode="&#58968;" d="M124.854857-54.857143H329.142857a36.571429 36.571429 0 1 0 0-73.142857h-292.571428a36.571429 36.571429 0 0 0-36.571429 36.571429v292.571428a36.571429 36.571429 0 0 0 73.142857 0v-204.288L899.145143 822.857143H694.857143a36.571429 36.571429 0 0 0 0 73.142857h292.571428a36.571429 36.571429 0 0 0 36.571429-36.571429v-292.571428a36.571429 36.571429 0 1 0-73.142857 0V771.145143L124.854857-54.857143z"  horiz-adv-x="1024" />

    
    <glyph glyph-name="protect" unicode="&#58969;" d="M572.342857 890.221714a33.28 33.28 0 0 0 26.916572-12.141714 469.723429 469.723429 0 0 1 305.883428-100.498286 31.963429 31.963429 0 0 0 23.698286-9.581714 30.72 30.72 0 0 0 10.898286-21.723429v-354.011428a452.461714 452.461714 0 0 0-208.018286-323.145143h-4.461714a469.723429 469.723429 0 0 0-270.116572-186.221714h-10.898286A448 448 0 0 0 105.106286 250.88V586.24a32.036571 32.036571 0 0 0 35.84 32.036571 256 256 0 0 1 64.073143 0v128a30.72 30.72 0 0 0 10.825142 23.625143 33.28 33.28 0 0 0 25.6 7.68A470.381714 470.381714 0 0 1 546.742857 878.738286L550.838857 882.834286a31.378286 31.378286 0 0 0 21.504 7.314285zM451.364571 652.8a582.436571 582.436571 0 0 0-202.898285-90.843429l-20.187429-4.096c-20.406857-3.437714-40.96-5.12-61.732571-4.900571v-296.96a379.538286 379.538286 0 0 1 284.818285-307.2 384 384 0 0 1 284.818286 307.2V552.96a504.32 504.32 0 0 0-284.818286 99.84z m169.910858-236.982857c8.557714 0 16.749714-3.364571 22.747428-9.435429a30.72 30.72 0 0 0 0-44.763428L416.182857 136.996571a32.036571 32.036571 0 0 0-42.861714-1.316571l-112.64 112.64a32.036571 32.036571 0 0 0 0 45.421714 30.72 30.72 0 0 0 44.763428 0l87.698286-90.185143 205.458286 202.825143a32.036571 32.036571 0 0 0 22.674286 9.508572z m-48.932572 402.139428a544.036571 544.036571 0 0 0-296.301714-108.836571h-7.021714v-75.483429a547.84 547.84 0 0 1 156.16 80.603429l3.730285 3.657143a32.036571 32.036571 0 0 0 14.189715 6.582857h8.923428a31.378286 31.378286 0 0 0 25.6-11.483429l16.530286-12.434285a440.978286 440.978286 0 0 1 269.531428-81.700572 33.28 33.28 0 0 0 25.6-7.68 34.596571 34.596571 0 0 0 10.898286-24.283428V250.88c-1.828571-15.798857-5.12-31.451429-9.581714-46.738286a371.858286 371.858286 0 0 1 85.138286 192V711.68a550.4 550.4 0 0 0-303.396572 106.276571z"  horiz-adv-x="1024" />

    
    <glyph glyph-name="time" unicode="&#58970;" d="M512 896a512 512 0 1 1 0-1024A512 512 0 0 1 512 896m0-950.857143c-242.029714 0-438.857143 196.827429-438.857143 438.857143s196.827429 438.857143 438.857143 438.857143 438.857143-196.827429 438.857143-438.857143-196.827429-438.857143-438.857143-438.857143m36.571429 768h-73.142858V384a36.571429 36.571429 0 0 1 10.678858-25.892571l219.428571-219.428572 51.712 51.712L548.571429 399.140571V713.142857z"  horiz-adv-x="1024" />

    
    <glyph glyph-name="date" unicode="&#58971;" d="M688.64 868.498286c17.700571 0 32.036571-14.336 32.036571-32.036572v-26.258285h210.505143c17.700571 0 32.036571-14.262857 32.036572-31.963429v-826.221714a31.963429 31.963429 0 0 0-32.036572-32.036572H74.24a31.963429 31.963429 0 0 0-31.963429 32.036572V778.24c0 17.700571 14.262857 32.036571 31.963429 32.036571h213.796571V836.388571c0 17.700571 14.262857 32.036571 31.963429 32.036572a31.963429 31.963429 0 0 0 28.818286-32.036572v-26.258285h307.785143v26.331428c0 17.554286 14.336 31.963429 32.036571 31.963429z m213.138286-339.236572H106.203429v-545.28l795.574857-1.243428V529.261714z m-486.4-92.745143a96.621714 96.621714 0 0 0 103.643428-96.036571c0.512-28.598857-10.825143-56.173714-31.305143-76.141714 27.282286-18.505143 44.178286-49.005714 45.348572-81.92a107.52 107.52 0 0 0-113.225143-110.08 146.578286 146.578286 0 0 0-110.738286 49.225143 24.356571 24.356571 0 0 0 0 32.694857l10.24 10.898285a22.381714 22.381714 0 0 0 17.92 7.68c6.582857 0 12.873143-2.779429 17.334857-7.68 15.579429-19.456 39.058286-31.012571 64-31.451428a45.421714 45.421714 0 0 1 48.64 48.054857c0 12.141714 0 49.956571-82.651428 49.956571a24.283429 24.283429 0 0 0-24.283429 24.283429v12.141714a23.698286 23.698286 0 0 0 24.356572 23.698286c71.021714 0 71.021714 24.941714 71.021714 47.323429 0 22.454857-14.116571 35.84-39.058286 35.84-19.748571-1.609143-38.034286-10.825143-51.2-25.6a20.48 20.48 0 0 0-17.92-7.606858 23.04 23.04 0 0 0-17.92 7.606858l-9.581714 11.556571a23.04 23.04 0 0 0 0 32.621714c24.502857 26.916571 59.026286 42.422857 95.378286 42.934857z m240.64-5.851428a24.283429 24.283429 0 0 0 24.283428-24.283429v-269.385143h42.276572c12.946286-0.365714 23.332571-10.752 23.698285-23.698285v-14.116572c0-13.165714-10.532571-23.990857-23.698285-24.283428H570.88a24.283429 24.283429 0 0 0-24.283429 24.283428V113.371429a24.356571 24.356571 0 0 0 24.283429 23.698285h46.738286V353.938286h-30.134857a23.698286 23.698286 0 0 0-23.625143 23.625143V389.12a24.356571 24.356571 0 0 0 19.821714 23.698286c16.530286 1.901714 32.621714 6.948571 47.323429 14.701714a26.258286 26.258286 0 0 0 12.214857 3.218286zM284.818286 746.349714H106.203429v-154.331428h793.014857v154.331428H720.603429v-26.331428a31.963429 31.963429 0 1 0-64 0v26.331428H348.891429v-26.331428a31.963429 31.963429 0 1 0-64 0v26.331428z"  horiz-adv-x="1024" />

    
    <glyph glyph-name="doucument-change" unicode="&#58972;" d="M401.261714 838.436571a221.476571 221.476571 0 0 0 218.916572-184.32h327.68c17.627429 0 31.963429-14.336 31.963428-32.036571v-660.48a31.963429 31.963429 0 0 0-31.963428-32.036571H76.068571a31.963429 31.963429 0 0 0-31.963428 32.036571V806.4C44.178286 824.100571 58.514286 838.436571 76.068571 838.436571z m514.56-248.32H108.251429v-596.48H915.748571V590.043429zM752.64 242.541714a31.963429 31.963429 0 1 0 0-64H368.64l69.778286-44.763428c14.774857-9.508571 19.090286-29.330286 9.581714-44.178286a30.72 30.72 0 0 0-26.843429 1.901714 30.061714 30.061714 0 0 0-17.334857 5.12L242.541714 200.411429l-4.461714 4.461714a22.381714 22.381714 0 0 0-3.218286 5.12 23.04 23.04 0 0 0 0 5.778286 19.163429 19.163429 0 0 0 0 6.363428l-0.219428 2.925714 0.219428 2.852572a19.163429 19.163429 0 0 0 0 6.436571l1.974857 2.779429 2.486858 2.340571 5.12 3.145143zM564.150857 491.812571c8.777143 15.36 28.525714 20.699429 43.885714 11.849143L768 389.851429l4.461714-4.461715 3.876572-5.12v-5.851428a19.236571 19.236571 0 0 0 0-6.363429 4.461714 4.461714 0 0 0 0-3.145143v-6.436571a23.04 23.04 0 0 0 0-5.778286l-3.803429-4.169143-4.534857-3.510857-5.046857-2.340571a27.501714 27.501714 0 0 0-10.971429-1.462857H259.218286a32.621714 32.621714 0 0 0-29.476572 30.061714c0 17.700571 14.336 32.036571 32.036572 32.036571h384l-69.778286 44.763429a32.109714 32.109714 0 0 0-11.849143 43.885714zM403.821714 774.363429H107.52v-120.32h448a159.378286 159.378286 0 0 1-151.698286 120.32z"  horiz-adv-x="1024" />

    
    <glyph glyph-name="down" unicode="&#58973;" d="M549.006849-10.082721l267.678002 240.983337a36.568033 36.568033 0 0 0 51.560926-2.706034l0.073136-0.073136a36.568033 36.568033 0 0 0-2.706034-51.634063l-327.283895-294.738345a36.421761 36.421761 0 0 0-23.403541-9.361417 36.421761 36.421761 0 0 0-29.254427 9.142008L158.460257 176.779928a36.641169 36.641169 0 0 0 48.928028 54.413233l268.775043-242.446059V855.775164c0 22.160228 16.309343 40.1517 36.494897 40.1517 20.112418 0 36.421761-17.991472 36.42176-40.224836v-865.857885z"  horiz-adv-x="1024" />

    
    <glyph glyph-name="scanner" unicode="&#58974;" d="M725.357714 896h128A170.642286 170.642286 0 0 0 1024 725.357714v-128a42.642286 42.642286 0 0 0-85.357714 0v128c0 47.104-38.180571 85.284571-85.284572 85.284572h-128a42.642286 42.642286 0 1 0 0 85.357714z m-384-42.642286a42.642286 42.642286 0 0 0-42.715428-42.715428h-128c-47.104 0-85.284571-38.180571-85.284572-85.284572v-128a42.642286 42.642286 0 1 0-85.357714 0v128A170.642286 170.642286 0 0 0 170.642286 896h128c23.552 0 42.715429-19.090286 42.715428-42.642286z m341.284572-938.715428c0 23.552 19.163429 42.715429 42.715428 42.715428h128c47.104 0 85.284571 38.180571 85.284572 85.284572v128a42.642286 42.642286 0 1 0 85.357714 0v-128A170.642286 170.642286 0 0 0 853.357714-128h-128a42.642286 42.642286 0 0 0-42.715428 42.642286zM298.642286-128h-128A170.642286 170.642286 0 0 0 0 42.642286v128a42.642286 42.642286 0 0 0 85.357714 0v-128c0-47.104 38.180571-85.284571 85.284572-85.284572h128a42.642286 42.642286 0 1 0 0-85.357714z"  horiz-adv-x="1024" />

    
    <glyph glyph-name="notification" unicode="&#58975;" d="M849.050185 199.177811V460.466661c0 157.226708-113.934517 288.785242-262.385781 323.521376v32.907915c0 36.564351-20.476036 69.472266-56.016585 76.785137C479.31147 905.45481 437.408724 867.062242 437.408724 817.700368v-34.736133c-148.451264-33.78546-262.385781-165.343994-262.385781-322.497574v-261.361979L73.227791 96.797628v-51.190091h877.544418v51.190091l-101.722024 102.380183zM512-128c57.844803 0 102.672697 43.877221 102.672697 100.551965H409.327303C409.327303-84.122779 454.155197-128 512-128z"  horiz-adv-x="1024" />

    
    <glyph glyph-name="heart-outline" unicode="&#58976;" d="M787.748571 895.926857c-58.587429 0-111.981714-26.331429-153.234285-69.046857L634.294857 827.099429l-2.633143-3.218286-23.698285-28.672L512 678.912l-95.963429 116.297143-23.698285 28.598857-2.633143 3.291429-0.219429-0.219429C346.916571 871.350857 292.571429 895.853714 236.324571 896 105.764571 895.926857 0 767.707429 0 609.572571c0-86.820571 31.963429-164.352 82.285714-216.868571L512-128l429.714286 520.704C994.011429 446.902857 1024 526.262857 1024 609.645714 1024 767.780571 918.235429 896 787.748571 896v-0.073143zM512 6.948571L250.294857 324.096l-130.413714 157.988571c-26.331429 34.816-40.96 80.237714-41.106286 127.488 0 105.325714 70.656 190.902857 157.549714 190.902858 40.374857 0 76.8-19.017143 104.740572-49.371429l11.995428-14.628571 118.857143-143.872 40.082286-48.64 40.082286 48.64L670.939429 736.548571l11.995428 14.555429c28.672 31.597714 65.974857 49.225143 104.740572 49.371429 86.893714 0 157.549714-85.577143 157.549714-190.902858-0.146286-47.250286-14.774857-92.672-41.106286-127.488l-11.264-13.604571-119.149714-144.384L512 6.948571z"  horiz-adv-x="1024" />

    
    <glyph glyph-name="share" unicode="&#58977;" d="M210.578286 221.403429a154.916571 154.916571 0 0 1 128 64.073142l299.52-178.614857c-3.657143-12.434286-5.558857-25.380571-5.778286-38.4a155.501714 155.501714 0 1 1 155.501714 154.916572 152.941714 152.941714 0 0 1-120.978285-58.88L362.203429 344.283429a138.24 138.24 0 0 1 3.876571 32.694857 192 192 0 0 1-3.876571 33.28l300.836571 179.785143a154.258286 154.258286 0 1 1-33.938286 95.378285c0.292571-12.726857 2.194286-25.453714 5.778286-37.741714L335.36 469.138286a155.501714 155.501714 0 1 1-124.781714-247.661715z m576-63.926858a91.501714 91.501714 0 1 0-91.574857-90.916571 90.843429 90.843429 0 0 0 89.6 92.818286l1.974857-1.974857z m0 617.545143a91.501714 91.501714 0 1 0-91.574857-91.501714 90.916571 90.916571 0 0 0 89.6 93.403429l1.974857-1.901715zM210.578286 466.651429a91.501714 91.501714 0 1 0-91.574857-89.6c0 50.468571 40.96 91.501714 91.574857 91.501714v-1.901714z"  horiz-adv-x="1024" />

    
    <glyph glyph-name="pay" unicode="&#58978;" d="M512 872.96A488.96 488.96 0 0 0 1000.96 384a31.963429 31.963429 0 1 0-64 0A424.96 424.96 0 1 1 512-40.96a31.963429 31.963429 0 1 0 0-64A488.96 488.96 0 1 0 512 872.96z m312.978286-648.996571c17.554286-0.292571 31.670857-14.409143 31.963428-31.963429v-74.898286h64a31.963429 31.963429 0 1 0 0-64h-64v-72.338285a32.621714 32.621714 0 0 0-31.963428-31.963429 31.963429 31.963429 0 0 0-32.036572 32.036571V55.588571h-64a31.963429 31.963429 0 1 0 0 64h64v72.338286c0 17.700571 14.336 32.036571 32.036572 32.036572zM686.372571 684.763429c8.557714 0 16.749714-3.437714 22.747429-9.508572a32.621714 32.621714 0 0 0 0-45.421714L559.323429 482.596571h169.691428a31.963429 31.963429 0 1 0 0-64h-185.051428v-89.014857h185.051428a31.963429 31.963429 0 1 0 0-64h-185.051428v-150.381714a31.963429 31.963429 0 1 0-64 0V265.581714H295.058286a31.963429 31.963429 0 1 0 0 64h184.978285V418.523429h-185.051428a31.963429 31.963429 0 1 0 0 64h174.811428L323.876571 627.931429a32.621714 32.621714 0 0 0 0 45.421714 32.036571 32.036571 0 0 0 45.348572 0L512 528.018286 663.698286 675.108571a32.036571 32.036571 0 0 0 22.674285 9.508572z"  horiz-adv-x="1024" />

    
    <glyph glyph-name="picture" unicode="&#58979;" d="M954.221714 812.617143c17.700571 0 32.036571-14.336 32.036572-32.036572V-42.422857a31.963429 31.963429 0 0 0-32.036572-32.036572H69.778286a31.963429 31.963429 0 0 0-32.036572 32.036572V780.580571c0 17.700571 14.336 32.036571 32.036572 32.036572zM728.356571 399.798857l-256-232.301714h-4.534857l-6.363428-3.803429h-23.698286l-5.12 3.803429-4.461714 3.218286L306.468571 294.253714l-196.461714-196.534857-8.338286-5.12v-103.058286l818.541715 1.316572v173.421714l-192 235.52z m193.828572 348.818286H101.814857V182.857143l182.418286 182.418286a30.061714 30.061714 0 0 0 22.381714 9.581714l6.363429-0.731429c6.217143-1.462857 11.995429-4.388571 16.676571-8.850285l122.221714-128L712.411429 472.137143a29.476571 29.476571 0 0 0 23.625142 7.68 30.72 30.72 0 0 0 22.454858-11.483429l163.84-200.996571v481.28z m-629.028572-87.04a96.621714 96.621714 0 1 0-2.633142-193.243429 96.621714 96.621714 0 0 0 2.56 193.243429z m-1.316571-64a32.621714 32.621714 0 0 1-32.621714-30.72 32.621714 32.621714 0 1 1 32.621714 29.403428z"  horiz-adv-x="1024" />

    
    <glyph glyph-name="desktop" unicode="&#58980;" d="M965.778286 162.816v656.091429c-0.365714 18.651429-14.482286 33.718857-32.036572 34.084571H92.16c-17.554286-0.365714-31.670857-15.433143-32.036571-34.157714v-656.018286c0-18.870857 14.336-34.157714 32.036571-34.157714h384v-124.196572H262.436571c-17.700571 0-32.036571-15.36-32.036571-34.157714 0-18.870857 14.336-34.157714 32.036571-34.157714h501.028572c17.700571 0 32.036571 15.36 32.036571 34.157714 0 18.870857-14.336 34.157714-31.963428 34.157714H540.818286v124.196572h392.923428c17.700571 0 32.036571 15.36 32.036572 34.157714z m-64 621.933714V332.068571H124.123429V784.749714H901.851429zM124.123429 196.973714v68.242286H899.949714v-68.242286H124.123429z"  horiz-adv-x="1024" />

    
    <glyph glyph-name="earphone" unicode="&#58981;" d="M948.443429 569.563429H799.451429v6.436571A261.12 261.12 0 0 1 538.843429 839.68h-53.686858A261.12 261.12 0 0 1 224.548571 576v-26.258286H75.483429a31.963429 31.963429 0 0 1-31.963429-31.963428v-350.061715c0.365714-17.554286 14.482286-31.670857 32.036571-32.036571H256a31.963429 31.963429 0 0 1 32.036571 32.036571V576a197.12 197.12 0 0 0 197.12 199.68h53.686858a197.12 197.12 0 0 0 196.534857-199.68v-408.283429c0-17.700571 14.336-32.036571 31.963428-32.036571h64v-89.6H670.72a101.741714 101.741714 0 0 1-94.72 70.363429 102.4 102.4 0 1 1 96.621714-134.363429h192a31.963429 31.963429 0 0 1 32.036572 32.036571v5.12 116.443429h53.101714a32.621714 32.621714 0 0 1 32.036571 32.036571V537.6a32.621714 32.621714 0 0 1-33.353142 32.036571zM107.52 488.374857h117.101714v-286.134857H107.52V488.301714z m466.578286-512a38.4 38.4 0 1 0 1.901714 0h-1.901714z m342.381714 225.865143h-117.101714V505.563429h117.101714v-303.323429z"  horiz-adv-x="1024" />

    
    <glyph glyph-name="cube" unicode="&#58982;" d="M511.561143 885.76a33.28 33.28 0 0 0 32.621714 0l406.381714-234.203429c9.874286-5.705143 15.945143-16.164571 16.018286-27.574857v-477.403428a32.036571 32.036571 0 0 0-16.018286-27.574857L544.182857-119.661714a37.814857 37.814857 0 0 0-16.018286-4.534857 28.818286 28.818286 0 0 0-15.945142 4.534857l-422.473143 236.105143A32.621714 32.621714 0 0 0 73.142857 144.603429V610.011429a33.28 33.28 0 0 0 18.578286 30.061714z m16.603428-64.658286L137.142857 591.36v-428.178286l390.436572-218.185143 377.563428 220.16v440.32L528.164571 821.028571z m192-254.025143a32.182857 32.182857 0 0 0 33.28-55.076571l-199.68-120.32v-229.156571a31.963429 31.963429 0 0 0-55.588571-23.844572 32.621714 32.621714 0 0 0-8.411429 23.844572V391.753143L290.742857 512a32.182857 32.182857 0 1 0 33.28 55.076571l197.12-119.076571z"  horiz-adv-x="1024" />

    
    <glyph glyph-name="user-verify" unicode="&#58983;" d="M512 886.418286A503.076571 503.076571 0 0 0 1015.661714 384 502.418286 502.418286 0 1 0 512 886.418286z m1.682286-64A438.418286 438.418286 0 0 1 512-54.418286 439.076571 439.076571 0 0 1 951.661714 384c0 241.956571-196.022857 438.125714-437.979428 438.418286z m13.019428-447.341715c98.596571 0 177.298286-105.618286 179.2-234.934857a31.963429 31.963429 0 0 0-31.963428-31.963428H218.843429a31.963429 31.963429 0 0 0-31.963429 31.963428c0 129.316571 80.676571 234.934857 179.2 234.934857z m0-64H369.371429c-55.076571 0-103.058286-60.854857-113.298286-138.971428h384c-10.24 78.116571-58.221714 138.971429-113.298286 138.971428zM832 537.6a31.963429 31.963429 0 0 0 43.52-45.421714l-138.24-138.24a33.28 33.28 0 0 0-45.421714 0l-68.461715 69.12a32.036571 32.036571 0 0 0 0 45.421714 31.963429 31.963429 0 0 0 44.763429 0l48.64-46.738286zM446.317714 675.181714a143.36 143.36 0 1 0 0.804572-286.72 143.36 143.36 0 0 0-0.804572 286.72z m1.682286-64a79.36 79.36 0 1 1-2.56-158.72 79.36 79.36 0 0 1 2.56 158.72z"  horiz-adv-x="1024" />

    
    <glyph glyph-name="fault" unicode="&#58984;" d="M783.506286 172.836571l-60.342857-60.416L512 323.657143l-211.236571-211.236572-60.342858 60.416L451.657143 384 240.420571 595.163429l60.416 60.342857L512 444.342857l211.163429 211.163429 60.342857-60.342857L572.342857 384l211.163429-211.163429zM512 896a512 512 0 1 1 0-1024A512 512 0 0 1 512 896z"  horiz-adv-x="1024" />

    
    <glyph glyph-name="left" unicode="&#58985;" d="M117.91872 346.989714l241.005714-267.702857a36.571429 36.571429 0 0 0-2.706285-51.565714l-0.073143-0.073143a36.571429 36.571429 0 0 0-51.638857 2.706286L9.740434 357.668571a36.425143 36.425143 0 0 0-9.362285 23.405715 36.425143 36.425143 0 0 0 9.142857 29.257143l295.277714 327.314285a36.644571 36.644571 0 0 0 54.418286-48.932571L116.748434 419.913143H983.857006c22.162286 0 40.155429-16.310857 40.155428-36.498286 0-20.114286-17.993143-36.425143-40.228571-36.425143H117.991863z"  horiz-adv-x="1024" />

    
    <glyph glyph-name="location" unicode="&#58986;" d="M391.753143 845.897143a396.8 396.8 0 0 0 457.069714-598.893714l-3.218286-4.388572-305.225142-327.68a30.72 30.72 0 0 0-23.113143-10.24 33.28 33.28 0 0 0-23.625143 10.24L192.219429 239.323429a16.018286 16.018286 0 0 0 0 4.388571l-10.678858 16.676571A398.116571 398.116571 0 0 0 124.342857 465.92 396.8 396.8 0 0 0 391.753143 845.897143z m129.389714-47.177143a332.8 332.8 0 0 1-332.8-332.8 325.778286 325.778286 0 0 1 56.32-184.32l276.48-297.618286 279.04 300.178286c35.108571 54.125714 53.833143 117.248 53.76 181.76a332.8 332.8 0 0 1-332.8 332.8z m0-130.56a165.741714 165.741714 0 1 0 2.56-331.483429 165.741714 165.741714 0 0 0-2.56 331.483429z m0-64a101.741714 101.741714 0 1 1 2.56-203.483429 101.741714 101.741714 0 0 1-2.56 203.483429z"  horiz-adv-x="1024" />

    
    <glyph glyph-name="down-squared" unicode="&#58987;" d="M877.714286 896a146.285714 146.285714 0 0 0 146.285714-146.285714v-731.428572a146.285714 146.285714 0 0 0-146.285714-146.285714H146.285714a146.285714 146.285714 0 0 0-146.285714 146.285714V749.714286a146.285714 146.285714 0 0 0 146.285714 146.285714h731.428572z m0-73.142857H146.285714a73.142857 73.142857 0 0 1-72.630857-64.585143L73.142857 749.714286v-731.428572a73.142857 73.142857 0 0 1 64.585143-72.630857L146.285714-54.857143h731.428572a73.142857 73.142857 0 0 1 72.630857 64.585143L950.857143 18.285714V749.714286a73.142857 73.142857 0 0 1-64.585143 72.630857L877.714286 822.857143zM247.954286 553.179429l265.435428-330.020572 262.582857 329.874286 57.197715-45.494857-319.414857-401.554286L190.902857 507.465143l57.051429 45.787428z"  horiz-adv-x="1024" />

    
    <glyph glyph-name="pay-dollar" unicode="&#58988;" d="M162.596571 730.185143A489.618286 489.618286 0 0 0 999.058286 384a32.036571 32.036571 0 0 0-64 0A424.96 424.96 0 1 1 512-40.96c17.554286-0.365714 31.670857-14.482286 32.036571-32.036571a31.963429 31.963429 0 0 0-32.036571-31.963429A489.618286 489.618286 0 0 0 162.596571 730.185143z m678.4-506.148572c17.627429 0 31.963429-14.336 31.963429-32.036571v-74.898286h64a31.963429 31.963429 0 1 0 0-64h-64v-72.338285a31.963429 31.963429 0 1 0-64 0v74.898285h-64a31.963429 31.963429 0 1 0 0 64h64v72.338286c0 17.700571 14.336 32.036571 32.036571 32.036571zM512.585143 742.4c17.554286-0.365714 31.744-14.482286 32.036571-32.036571v-64c44.690286-5.266286 86.601143-24.576 119.661715-55.003429a32.621714 32.621714 0 0 0 0-46.08l-15.36-14.701714a32.621714 32.621714 0 0 0-44.105143 0A128 128 0 0 1 512 565.101714c-37.156571 0-81.261714-20.48-81.261714-45.421714 0-24.941714 21.723429-37.741714 64-53.76l73.581714-26.843429a153.6 153.6 0 0 0 121.563429-139.556571 147.821714 147.821714 0 0 0-145.92-139.556571v-63.926858a32.621714 32.621714 0 0 0-31.963429-32.036571 31.963429 31.963429 0 0 0-31.378286 26.843429v60.854857a243.2 243.2 0 0 0-153.6 71.021714 28.818286 28.818286 0 0 0-8.923428 23.04c0 8.777143 3.657143 17.188571 10.24 23.04l16.603428 14.701714a32.036571 32.036571 0 0 0 44.178286 0 168.96 168.96 0 0 1 120.32-47.981714c42.861714 0 92.818286 14.701714 92.818286 55.661714 0 32.694857-15.36 43.52-67.876572 64L461.531429 384c-38.4 16.676571-117.76 47.323429-117.76 134.436571 5.632 71.68 65.097143 127.195429 136.923428 128v63.926858c0 17.700571 14.336 32.036571 32.036572 32.036571z"  horiz-adv-x="1024" />

    
    <glyph glyph-name="paperclip" unicode="&#58989;" d="M365.714286 164.571429V640a36.571429 36.571429 0 0 0 73.142857 0V164.571429a73.142857 73.142857 0 0 1 146.285714 0V676.571429a146.285714 146.285714 0 1 1-292.571428 0v-512a219.428571 219.428571 0 0 1 438.857142 0V640a36.571429 36.571429 0 1 0 73.142858 0V164.571429a292.571429 292.571429 0 1 0-585.142858 0V676.571429a219.428571 219.428571 0 1 0 438.857143 0v-512a146.285714 146.285714 0 1 0-292.571428 0z"  horiz-adv-x="1024" />

    
    <glyph glyph-name="arrow-left" unicode="&#58990;" d="M804.571429 760.393143L348.16 382.025143l456.265143-374.125714-52.662857-62.756572L219.428571 381.659429 751.689143 822.857143z"  horiz-adv-x="1024" />

    
    <glyph glyph-name="settings" unicode="&#58991;" d="M584.338286 863.378286c15.286857 0.219429 28.525714-10.605714 31.378285-25.6l21.723429-109.421715 10.24-3.876571 19.163429-7.68 85.138285 58.88a31.963429 31.963429 0 0 0 40.96 0l112.64-109.421714c10.825143-11.044571 12.434286-28.16 3.876572-40.96l-64-89.014857 4.461714-9.508572 8.338286-19.236571 101.741714-18.578286a32.036571 32.036571 0 0 0 26.258286-31.378286v-152.941714a31.378286 31.378286 0 0 0-26.258286-31.378286l-108.836571-20.48v-10.24l-2.56-1.243428-7.606858-19.236572 58.88-85.723428a31.378286 31.378286 0 0 0-3.876571-40.374857l-107.52-109.421715a32.621714 32.621714 0 0 0-23.04-9.581714 31.378286 31.378286 0 0 0-17.92 5.778286l-88.941714 60.123428-9.581715-4.461714-18.578285-8.338286-18.578286-101.741714a32.036571 32.036571 0 0 0-32.036571-26.258286H424.374857a31.378286 31.378286 0 0 0-31.378286 25.6l-20.48 105.618286-10.24 3.876571-18.505142 7.68-85.796572-58.953142a30.72 30.72 0 0 0-40.301714 3.876571l-108.178286 107.52a32.036571 32.036571 0 0 0-3.803428 40.96l60.123428 88.941714-4.461714 10.24L153.6 256 51.2 277.138286a32.036571 32.036571 0 0 0-25.6 31.305143V461.531429a31.378286 31.378286 0 0 0 25.6 31.305142l105.618286 19.236572 4.461714 13.458286 7.021714 18.505142-58.88 85.796572a31.963429 31.963429 0 0 0 3.876572 40.301714L221.403429 778.24a32.036571 32.036571 0 0 0 40.96 3.803429l92.891428-59.465143 10.24 4.461714 18.505143 8.338286 16.018286 101.741714a31.378286 31.378286 0 0 0 31.305143 26.258286z m-26.258286-66.56H458.24l-17.261714-92.818286a32.621714 32.621714 0 0 0-20.48-19.821714l-32.036572-13.458286-26.843428-12.141714a32.036571 32.036571 0 0 0-31.378286 0l-81.92 55.661714-71.021714-70.363429 53.101714-80.018285c5.851429-8.777143 7.021714-19.748571 3.218286-29.476572l-12.8-32.621714-10.24-27.501714a30.72 30.72 0 0 0-23.698286-20.48l-97.28-18.578286v-99.84l92.818286-15.36c9.728-2.633143 17.554286-9.801143 21.065143-19.163429l14.116571-32.694857 12.8-26.843428a32.036571 32.036571 0 0 0 0-31.378286l-55.661714-81.92 69.12-72.996571 77.385143 53.174857a30.061714 30.061714 0 0 0 30.134857 3.218285l32.621714-12.8h3.218286l27.501714-10.971428a30.72 30.72 0 0 0 20.48-23.625143l18.578286-99.84h101.083428l17.261715 92.818286a33.28 33.28 0 0 0 18.578285 23.625143l32.694857 13.458285 26.843429 12.214857a32.621714 32.621714 0 0 0 31.378286 0l81.92-55.734857 68.461714 71.68-51.858286 79.36a29.476571 29.476571 0 0 0 0 30.134857l12.8 32.621715 10.24 28.16a31.963429 31.963429 0 0 0 24.356572 19.821714l97.28 18.578286V430.738286l-92.818286 17.261714a33.28 33.28 0 0 0-24.283429 18.578286l-14.116571 33.28-12.141714 26.843428a30.72 30.72 0 0 0 0 31.378286l55.661714 81.92-69.12 71.021714-81.261714-53.76a30.061714 30.061714 0 0 0-30.134857 0l-31.963429 12.8-28.16 10.24a33.28 33.28 0 0 0-20.48 23.698286L558.08 796.818286z m-53.101714-220.818286a195.876571 195.876571 0 1 0 6.436571-391.606857 195.876571 195.876571 0 0 0-6.436571 391.606857z m1.755428-64.073143a131.803429 131.803429 0 0 1-1.755428-263.606857V250.88A131.803429 131.803429 0 0 1 640 384a131.803429 131.803429 0 0 1-133.266286 128z"  horiz-adv-x="1024" />

    
    <glyph glyph-name="home" unicode="&#58992;" d="M579.218286-96.036571h206.043428a31.963429 31.963429 0 0 1 32.036572 32.036571V378.88h122.221714a32.621714 32.621714 0 0 1 29.403429 20.48 31.378286 31.378286 0 0 1-8.923429 35.181714L525.458286 845.531429a32.621714 32.621714 0 0 1-44.178286 0L45.421714 434.468571a32.621714 32.621714 0 0 1 21.796572-55.661714h98.523428v-442.88c0-17.700571 14.336-32.036571 32.036572-32.036571H404.48a31.963429 31.963429 0 0 1 32.036571 32.036571V175.981714H547.108571v-239.981714c0-17.700571 14.336-32.036571 32.036572-32.036571zM404.48 240.054857a31.963429 31.963429 0 0 1-32.036571-31.963428v-239.981715h-142.628572V410.843429a31.963429 31.963429 0 0 1-32.036571 32.036571H147.748571L503.076571 778.24l355.766858-335.36h-73.581715a31.963429 31.963429 0 0 1-31.963428-32.036571v-442.806858H611.181714v239.908572a31.963429 31.963429 0 0 1-31.963428 32.036571H404.48z"  horiz-adv-x="1024" />

    
    <glyph glyph-name="more" unicode="&#58993;" d="M201.289143 327.826286a54.857143 54.857143 0 1 0 0 109.714285 54.857143 54.857143 0 0 0 0-109.714285z m309.76 2.633143a54.857143 54.857143 0 1 0 0 109.714285 54.857143 54.857143 0 0 0 0-109.714285z m311.661714-0.731429a54.857143 54.857143 0 1 0 0 109.714286 54.857143 54.857143 0 0 0 0-109.714286z"  horiz-adv-x="1024" />

    
    <glyph glyph-name="phonecall" unicode="&#58994;" d="M236.470857 838.217143c8.557714 0 16.749714-3.364571 22.674286-9.435429l205.531428-204.141714a30.72 30.72 0 0 0 8.923429-24.941714 33.28 33.28 0 0 0-12.141714-23.698286l-128-96.036571L603.428571 204.8l90.916572 134.363429a30.061714 30.061714 0 0 0 23.698286 14.116571 32.036571 32.036571 0 0 0 25.6-8.996571l207.945142-210.505143a32.621714 32.621714 0 0 0 9.654858-23.04 30.72 30.72 0 0 0-10.24-23.04L779.483429-76.8h-4.534858l-5.778285-3.803429a37.156571 37.156571 0 0 0-8.923429 0h-9.581714A693.101714 693.101714 0 0 0 256 136.338286a739.84 739.84 0 0 0-227.84 491.52l-0.219429 3.803428 0.219429 3.876572a40.96 40.96 0 0 0 0 4.461714 47.981714 47.981714 0 0 0 5.12 8.338286L213.723429 828.708571a32.036571 32.036571 0 0 0 22.747428 9.508572zM236.251429 761.051429L88.941714 613.668571a679.716571 679.716571 0 0 1 209.92-432.64 636.123429 636.123429 0 0 1 443.538286-197.12l131.876571 124.196572-154.916571 154.843428L628.443429 128l-20.48 7.021714H579.291429L256 464.603429v3.876571a26.258286 26.258286 0 0 0 0 5.778286 17.92 17.92 0 0 0 0 5.778285 19.821714 19.821714 0 0 0 0 6.363429 18.578286 18.578286 0 0 0 0 5.778286v5.778285l10.24 14.043429 126.683429 92.16L236.251429 760.978286z m395.483428-26.916572a256 256 0 0 0 163.254857-72.923428c43.885714-43.885714 69.924571-102.473143 72.923429-164.498286a32.036571 32.036571 0 0 0-30.061714-33.938286l-6.290286 0.658286a32.036571 32.036571 0 0 0-25.746286 30.061714 188.123429 188.123429 0 0 1-177.298286 176.64 31.963429 31.963429 0 0 0-29.988571 33.938286 30.061714 30.061714 0 0 0 33.206857 30.061714zM640 838.363429a352.621714 352.621714 0 0 0 231.716571-104.96 362.276571 362.276571 0 0 0 97.865143-235.52 32.036571 32.036571 0 0 0-30.061714-33.28l-5.412571-0.146286a32.036571 32.036571 0 0 0-30.427429 31.524571 296.96 296.96 0 0 1-79.36 192 282.843429 282.843429 0 0 1-192 86.381715l-5.778286 0.585142a32.036571 32.036571 0 0 0 5.778286 63.488z m3.876571-211.821715c30.500571-1.462857 59.245714-14.555429 80.603429-36.425143 21.650286-22.016 34.596571-51.2 36.498286-81.92a31.963429 31.963429 0 0 0-30.72-33.353142l-6.217143 0.658285a32.036571 32.036571 0 0 0-25.819429 29.476572 60.196571 60.196571 0 0 1-17.92 40.301714 64 64 0 0 1-40.301714 17.92 31.963429 31.963429 0 0 0-19.529143 55.588571 31.378286 31.378286 0 0 0 23.405714 7.753143z"  horiz-adv-x="1024" />

    
    <glyph glyph-name="tag" unicode="&#58995;" d="M146.381036 835.745995C146.381036 859.438104 173.656211 896 207.293156 896h609.413688c33.636945 0 60.912119-36.561896 60.91212-60.254005v-897.155813c0-27.055803-13.162283-53.453492-34.88005-62.740214-26.03207-11.114816-65.226423 5.411161-82.92238 25.593327l-194.14367 224.124425c-15.136625 20.255291-30.638869 32.978831-53.672864 32.97883-27.713917 0-38.024372-12.72354-55.427835-32.97883l-194.801784-224.197549a78.242458 78.242458 0 0 0-54.477225-25.520203c-33.636945 0-60.912119 32.101345-60.91212 62.740214V835.819119z m73.123793-41.534314v-735.040365c0-11.846054 0.146248-41.680562 17.330339-48.77357 21.425271-8.774855 37.073763 8.116741 46.579856 17.549711 6.36177 6.36177 68.151375 72.758174 185.368814 199.262335 10.60295 10.091083 19.524053 22.960871 43.216162 22.960871 23.692109 0 36.488773-13.30853 46.65298-22.960871l197.214869-197.361117c12.065426-11.334188 23.692109-23.692109 34.51443-19.450929 13.893521 5.484284 14.112892 23.399614 14.112892 38.243744V794.211681c0 15.575368-16.37973 28.664527-36.561896 28.664526h-511.86655c-20.182167 0-36.561896-11.334188-36.561896-28.664526zM515.363694 620.250178m-73.123792 0a73.123793 73.123793 0 1 1 146.247585 0 73.123793 73.123793 0 1 1-146.247585 0Z"  horiz-adv-x="1024" />

    
    <glyph glyph-name="truth-circled" unicode="&#58996;" d="M424.155429 219.794286L756.516571 552.228571a42.642286 42.642286 0 1 0 60.342858-60.342857l-362.057143-362.057143a42.642286 42.642286 0 0 0-60.854857-0.438857L198.217143 325.12a42.642286 42.642286 0 1 0 60.342857 60.342857l165.522286-165.595428zM512-54.857143A438.857143 438.857143 0 1 1 512 822.857143a438.857143 438.857143 0 0 1 0-877.714286z m0-73.142857A512 512 0 1 0 512 896a512 512 0 0 0 0-1024z"  horiz-adv-x="1024" />

    
    <glyph glyph-name="refresh" unicode="&#58997;" d="M77.312 441.417143A32.987429 32.987429 0 0 1 85.577143 442.514286l159.085714 42.642285a32.182857 32.182857 0 0 1-16.676571 62.171429l-84.114286-22.528a404.041143 404.041143 0 0 0 763.611429-95.963429 32.182857 32.182857 0 0 1 63.268571 11.776A468.406857 468.406857 0 0 1 88.210286 557.202286l-24.868572 93.110857a32.182857 32.182857 0 0 1-62.171428-16.676572l45.056-168.374857a32.182857 32.182857 0 0 1 31.085714-23.844571z m945.590857-346.989714l-45.129143 168.374857a32.182857 32.182857 0 0 1-39.424 22.674285l-159.085714-42.569142a32.182857 32.182857 0 0 1 16.676571-62.171429l89.819429 24.064a406.820571 406.820571 0 0 0-375.515429-254.756571 403.748571 403.748571 0 0 0-397.531428 330.971428 32.182857 32.182857 0 0 1-63.268572-11.556571 468.114286 468.114286 0 0 1 460.8-383.780572c185.197714 0 353.060571 111.762286 427.52 277.723429l22.966858-85.577143a32.182857 32.182857 0 1 1 62.171428 16.603429z"  horiz-adv-x="1024" />

    
    <glyph glyph-name="watch" unicode="&#58998;" d="M549.083429 817.956571V726.308571h-73.142858V817.956571H402.285714a36.571429 36.571429 0 0 0-36.571428 36.571429V859.428571a36.571429 36.571429 0 0 0 36.571428 36.571429h219.428572a36.571429 36.571429 0 0 0 36.571428-36.571429v-4.900571a36.571429 36.571429 0 0 0-36.571428-36.571429h-72.630857zM762.294857 671.378286l45.421714 45.421714a36.571429 36.571429 0 0 0 51.712-51.712l-40.521142-40.521143a438.857143 438.857143 0 1 0-56.612572 46.811429zM512.512 472.137143c20.187429 0 36.571429-17.554286 36.571429-39.131429v-156.233143c0-21.577143-16.384-39.058286-36.571429-39.058285-20.260571 0-36.644571 17.554286-36.644571 39.058285V433.005714c0 21.577143 16.384 39.131429 36.571428 39.131429zM512-54.857143A365.714286 365.714286 0 1 1 512 676.571429a365.714286 365.714286 0 0 1 0-731.428572z"  horiz-adv-x="1024" />

    
    <glyph glyph-name="images" unicode="&#58999;" d="M949.76 512.731429a45.056 45.056 0 0 1-43.593143 46.592l-624.493714 21.723428a45.129143 45.129143 0 0 1-46.811429-43.446857l-13.165714-376.832 208.018286 200.045714a45.202286 45.202286 0 0 0 36.937143 12.288 45.202286 45.202286 0 0 0 36.937142-12.288l116.370286-111.908571 39.497143 39.204571a45.348571 45.348571 0 0 0 66.56 4.169143L934.985143 91.428571l14.774857 421.449143zM695.369143 196.754286l-41.545143-41.398857a45.202286 45.202286 0 0 0-35.035429-13.092572 45.129143 45.129143 0 0 0-31.085714 12.653714L466.651429 271.213714l-229.522286-220.672c7.094857-5.412571 15.945143-8.777143 25.6-9.069714l616.374857-21.430857-183.734857 176.64z m-531.529143-99.474286l-36.864-2.486857c-47.030857-3.291429-87.771429 32.109714-91.062857 79.067428L0.219429 684.105143c-3.291429 46.957714 32.182857 87.698286 79.140571 90.989714l680.886857 47.542857c46.957714 3.291429 87.771429-32.182857 91.062857-79.067428l7.972572-113.883429 82.358857-2.925714A85.284571 85.284571 0 0 0 1024 538.697143l-17.846857-511.268572a85.284571 85.284571 0 0 0-88.210286-82.139428l-673.133714 23.405714a85.284571 85.284571 0 0 0-82.285714 88.210286l1.389714 40.448z m616.228571 544.914286l-4.461714 64.365714a44.032 44.032 0 0 1-47.030857 40.813714l-614.765714-43.008a44.032 44.032 0 0 1-40.813715-46.957714l30.72-438.784a43.885714 43.885714 0 0 1 3.437715-14.336l49.444571 47.689143 11.337143 323.510857a87.990857 87.990857 0 0 0 91.062857 84.845714l521.069714-18.212571z m-25.965714-234.934857a73.069714 73.069714 0 1 0 0 146.139428 73.069714 73.069714 0 0 0 0-146.139428z"  horiz-adv-x="1024" />

    
    <glyph glyph-name="sort" unicode="&#59000;" d="M512-54.857143L219.428571 237.714286h585.142858zM512 822.857143l292.571429-292.571429H219.428571z"  horiz-adv-x="1024" />

    
    <glyph glyph-name="money-circled" unicode="&#59001;" d="M522.24 886.418286A503.076571 503.076571 0 0 0 1024 384 502.418286 502.418286 0 1 0 522.24 886.418286z m166.985143-97.28A438.418286 438.418286 0 1 1 354.011429-21.138286 438.418286 438.418286 0 0 1 689.225143 789.065143z m14.774857-85.138286a33.718857 33.718857 0 0 0 46.738286-48.64L563.2 471.698286h215.698286c17.554286-0.365714 31.670857-14.482286 31.963428-32.036572a31.963429 31.963429 0 0 0-31.963428-31.963428H554.276571V291.108571h224.548572c17.554286-0.292571 31.744-14.482286 32.036571-31.963428a31.963429 31.963429 0 0 0-31.963428-32.036572H554.276571v-183.661714a31.963429 31.963429 0 1 0-64.073142 0V227.181714h-224.548572a31.963429 31.963429 0 1 0 0 64h224.548572V407.698286h-224.548572a31.963429 31.963429 0 1 0 0 64h220.16L303.908571 653.458286a32.036571 32.036571 0 0 0 0 45.421714 32.621714 32.621714 0 0 0 45.494858 0l175.323428-175.396571z"  horiz-adv-x="1024" />

    
    <glyph glyph-name="trade" unicode="&#59002;" d="M499.2 872.96a476.16 476.16 0 0 0 476.16-476.16 31.963429 31.963429 0 1 0-64 0 412.16 412.16 0 1 1-412.16-426.203429h318.098286l-128 85.065143a32.621714 32.621714 0 0 0-7.68 44.836572 31.963429 31.963429 0 0 0 44.105143 8.338285l209.92-144.091428 4.534857-5.12v-4.388572a23.04 23.04 0 0 0 0-5.851428v-18.505143l-3.510857-3.876571-4.169143-3.145143-4.388572-1.682286a34.596571 34.596571 0 0 0-9.069714-1.536h-419.84a476.16 476.16 0 0 0 0 952.32z m186.002286-186.806857l5.851428-0.877714a31.963429 31.963429 0 0 0 12.946286-55.515429L554.861714 482.596571h170.276572a31.963429 31.963429 0 1 0 0-64H539.501714v-89.014857h185.636572c17.627429 0 31.963429-14.336 31.963428-31.963428a32.621714 32.621714 0 0 0-31.963428-32.036572H539.501714v-150.381714a31.963429 31.963429 0 0 0-31.963428-32.036571 32.621714 32.621714 0 0 0-32.036572 32.036571V265.581714H290.523429a32.621714 32.621714 0 0 0-31.963429 32.036572c0 17.627429 14.336 31.963429 32.036571 31.963428H475.428571V418.523429H290.523429a31.963429 31.963429 0 1 0 0 64h174.811428L319.926857 627.931429a32.036571 32.036571 0 0 0 0 45.421714 30.72 30.72 0 0 0 44.763429 0L512 528.018286 659.163429 675.108571a32.036571 32.036571 0 0 0 31.890285 10.093715z"  horiz-adv-x="1024" />

    
    <glyph glyph-name="star-outline" unicode="&#59003;" d="M512.54784 895.992686c4.461682 0 8.923365-2.779409 10.605639-8.045657L674.923823 554.564267l338.429583-40.886565c10.751923 0 15.213606-14.40904 6.58281-21.064992l-263.751259-236.761738 76.43374-368.637366a11.995343 11.995343 0 0 0-4.022829-13.019336 10.678781 10.678781 0 0 0-13.092478 0L512.54784 62.755209 209.519147-125.80573a10.751923 10.751923 0 0 0-13.019335 0.146285 12.068485 12.068485 0 0 0-4.095971 12.946193l76.43374 368.637367L5.159464 492.685852a11.995343 11.995343 0 0 0-4.022828 13.019336c1.462847 4.827394 5.778244 8.045657 10.605638 8.045657l338.356441 40.886565L501.942201 887.873887A10.97135 10.97135 0 0 0 512.54784 895.992686V895.992686zM161.172064 460.795794l189.438647-169.909643-55.076178-266.384383 217.964157 135.825315 218.183585-135.752173-55.295605 266.311241 189.292362 169.982786-241.150278 29.110649-111.030064 243.41769-110.956921-243.490832-241.369705-29.11065z"  horiz-adv-x="1024" />

    
    <glyph glyph-name="minus-circled" unicode="&#59004;" d="M512 890.221714a503.003429 503.003429 0 0 0 502.418286-502.345143A502.418286 502.418286 0 1 0 512 890.148571z m0-64A438.418286 438.418286 0 1 1 512-50.468571 438.418286 438.418286 0 0 1 512 826.221714z m384-410.185143a31.963429 31.963429 0 1 0 0-64H130.56a32.036571 32.036571 0 0 0-2.56 64z"  horiz-adv-x="1024" />

    
    <glyph glyph-name="right" unicode="&#59005;" d="M906.386286 421.010286l-241.005715 267.702857a36.571429 36.571429 0 0 0 2.706286 51.565714l0.073143 0.073143a36.571429 36.571429 0 0 0 51.638857-2.706286l294.765714-327.314285a36.425143 36.425143 0 0 0 9.362286-23.405715 36.425143 36.425143 0 0 0-9.069714-29.257143l-295.277714-327.314285a36.644571 36.644571 0 0 0-54.418286 48.932571l242.468571 268.8H40.374857c-22.162286 0-40.155429 16.310857-40.155428 36.498286 0 20.114286 17.993143 36.425143 40.228571 36.425143h865.938286z"  horiz-adv-x="1024" />

    
    <glyph glyph-name="upward" unicode="&#59006;" d="M745.179429-32.036571a31.963429 31.963429 0 1 0 0-63.926858H297.033143a31.963429 31.963429 0 1 0 0 63.926858z m-72.996572 102.4a31.963429 31.963429 0 1 0 0-63.926858H370.102857a31.963429 31.963429 0 1 0 0 64zM500.662857 843.556571c11.702857 10.24 29.257143 10.24 40.96 0l354.523429-300.105142a30.72 30.72 0 0 0 8.996571-35.254858 32.036571 32.036571 0 0 0-28.16-21.065142H713.142857v-342.454858a31.963429 31.963429 0 0 0-32.036571-31.963428H361.252571a31.963429 31.963429 0 0 0-32.036571 32.036571v342.308572H167.204571a31.963429 31.963429 0 0 0-30.061714 21.211428 30.72 30.72 0 0 0 8.338286 35.108572z m20.48-65.828571L253.586286 550.985143h107.52c17.700571 0 32.036571-14.336 32.036571-32.036572v-342.381714h254.098286V519.021714c0 17.700571 14.336 32.036571 31.963428 32.036572h109.494858L521.142857 777.508571z"  horiz-adv-x="1024" />

    
    <glyph glyph-name="up-circled" unicode="&#59007;" d="M506.221714 886.418286a502.418286 502.418286 0 1 0 0-1004.836572A503.003429 503.003429 0 0 0 3.803429 384 502.418286 502.418286 0 0 0 506.368 886.418286z m0-64a438.418286 438.418286 0 1 1 0-876.836572 438.418286 438.418286 0 0 1 0 876.836572zM490.203429 690.468571a31.963429 31.963429 0 0 0 43.593142 0l219.428572-200.338285a32.621714 32.621714 0 0 0 0-45.348572 31.963429 31.963429 0 0 0-23.625143-10.24 30.72 30.72 0 0 0-21.723429 8.265143L544.036571 593.92v-493.421714a31.963429 31.963429 0 1 0-64 0V593.92l-163.84-151.04a32.182857 32.182857 0 0 0-43.593142 47.323429z"  horiz-adv-x="1024" />

    
    <glyph glyph-name="pin" unicode="&#59008;" d="M172.617143 147.163429h314.514286v-240.64c0-17.627429 16.384-31.963429 36.571428-31.963429 20.041143 0.365714 36.205714 14.482286 36.571429 32.036571v240.64H877.714286c13.385143 0 25.6 6.363429 32.036571 16.676572a28.598857 28.598857 0 0 1-1.316571 32.548571C795.794286 344.283429 731.428571 435.931429 710.217143 458.898286c-4.388571 30.72-23.405714 152.941714-35.84 242.541714 51.931429 85.796571 84.114286 140.141714 84.114286 140.141714a29.037714 29.037714 0 0 1 0 30.72 39.497143 39.497143 0 0 1-31.451429 15.36H321.097143a36.790857 36.790857 0 0 1-28.525714-15.36 27.428571 27.428571 0 0 1 0-30.72s27.794286-54.418286 80.457142-137.581714c-13.165714-89.6-31.451429-211.821714-36.571428-242.541714L141.897143 198.948571a29.696 29.696 0 0 1 0-32.621714 37.376 37.376 0 0 1 30.72-19.236571zM402.285714 430.08a29.110857 29.110857 0 0 1 5.851429 13.458286s24.137143 156.16 38.765714 260.461714a28.16 28.16 0 0 1-4.388571 18.578286L381.805714 823.588571H665.6L604.16 722.651429a23.771429 23.771429 0 0 1 0-18.578286c14.628571-104.301714 38.034286-260.461714 38.034286-260.461714 0.731429-4.827429 2.706286-9.435429 5.851428-13.458286 0 0 54.125714-76.8 156.525715-218.916572H239.908571L402.285714 430.08z"  horiz-adv-x="1024" />

    
    <glyph glyph-name="hide" unicode="&#59009;" d="M40.301714 372.516571v-9.654857a860.818286 860.818286 0 0 1 248.32-268.141714l-101.083428-149.138286a32.621714 32.621714 0 0 1 26.185143-50.541714c10.605714 0 20.48 5.266286 26.331428 14.116571l108.105143 154.843429a384 384 0 0 1 157.403429-40.301714h10.24c163.254857 0 320.073143 113.883429 464.018285 338.505143v4.534857a24.283429 24.283429 0 0 1 0 6.363428 24.283429 24.283429 0 0 1 0 6.436572 17.92 17.92 0 0 1 0 5.778285 18.578286 18.578286 0 0 1 0 8.265143 10.898286 10.898286 0 0 1 0 3.218286 917.138286 917.138286 0 0 1-222.72 250.221714l96.036572 137.581715a31.963429 31.963429 0 1 1-52.516572 36.571428L704 681.545143a380.123429 380.123429 0 0 1-198.436571 52.443428C234.203429 726.381714 51.2 407.698286 43.52 394.24v-6.363429a17.92 17.92 0 0 1 0-5.851428 19.821714 19.821714 0 0 1-3.218286-9.508572z m873.618286 6.363429c-128-197.12-268.141714-295.058286-406.381714-291.84a320 320 0 0 0-123.538286 29.403429l67.218286 96.694857c20.333714-8.045714 42.057143-12.141714 64-12.141715A166.4 166.4 0 0 1 640 479.963429l80.603429 115.2c76.214857-60.708571 141.531429-133.851429 193.316571-216.356572z m-500.443429-11.483429c0 56.905143 46.08 102.985143 102.985143 102.985143 11.337143-0.219429 22.528-2.194286 33.28-5.778285L437.101714 302.811429a101.741714 101.741714 0 0 0-23.698285 64.658285z m205.385143 0a102.4 102.4 0 0 0-102.4-102.4 111.981714 111.981714 0 0 0-25.6 0l110.08 160.621715c11.849143-17.115429 18.066286-37.449143 17.92-58.221715zM507.611429 669.988571a320 320 0 0 0 157.403428-40.301714L587.556571 517.778286A166.4 166.4 0 0 1 399.36 248.978286l-70.436571-101.156572a800.036571 800.036571 0 0 0-220.16 231.058286c39.058286 61.44 194.56 285.476571 398.774857 291.181714z"  horiz-adv-x="1024" />

    
    <glyph glyph-name="users" unicode="&#59010;" d="M734.061714 479.963429c37.741714 39.716571 58.587429 92.452571 58.221715 147.236571A215.698286 215.698286 0 0 1 610.011429 840.923429a31.963429 31.963429 0 0 1-33.938286-26.843429 28.818286 28.818286 0 0 1 0-12.8 214.381714 214.381714 0 0 1-128 42.203429 215.698286 215.698286 0 0 1-104.301714-405.723429 435.2 435.2 0 0 1-301.494858-416.036571 32.036571 32.036571 0 0 1 31.451429-32.621715 30.72 30.72 0 0 1 32.621714 31.378286C110.006857 226.596571 263.606857 392.996571 447.926857 384a356.498286 356.498286 0 0 0 328.996572-380.123429c0-17.554286 13.824-31.963429 31.305142-32.694857 17.408 0 31.670857 13.897143 32.036572 31.378286A431.981714 431.981714 0 0 1 547.108571 436.516571a213.723429 213.723429 0 0 1 55.076572 340.406858 152.356571 152.356571 0 0 0 42.203428-285.988572 26.258286 26.258286 0 0 1-8.338285-6.436571 13.458286 13.458286 0 0 1-3.803429-6.436572v-22.381714c2.486857-3.657143 5.485714-6.875429 8.996572-9.581714 4.169143-2.267429 8.704-3.803429 13.385142-4.534857 156.818286-12.141714 256-147.163429 264.338286-371.126858a32.621714 32.621714 0 0 1 32.036572-30.72 31.378286 31.378286 0 0 1 29.988571 33.28c-6.948571 210.505143-99.181714 360.301714-247.003429 407.04z m-286.061714-5.12a152.356571 152.356571 0 1 0 151.698286 152.356571 152.941714 152.941714 0 0 0-151.698286-152.356571z"  horiz-adv-x="1024" />

    
    <glyph glyph-name="return-right" unicode="&#59011;" d="M900.681143 676.571429l-77.385143 77.385142a36.571429 36.571429 0 0 0 51.712 51.712l138.459429-138.459428a36.425143 36.425143 0 0 0 10.678857-26.185143 36.571429 36.571429 0 0 0-14.628572-30.134857l-134.509714-134.582857a36.571429 36.571429 0 0 0-51.712 51.712L898.633143 603.428571H365.714286a292.571429 292.571429 0 1 1 0-585.142857h548.571428a36.571429 36.571429 0 1 0 0-73.142857H365.714286A365.714286 365.714286 0 0 0 365.714286 676.571429h534.966857z"  horiz-adv-x="1024" />

    
    <glyph glyph-name="message" unicode="&#59012;" d="M960 822.857143a32.036571 32.036571 0 0 0 32.621714-31.378286V173.348571a32.036571 32.036571 0 0 0-32.621714-32.036571H493.421714L330.24 9.508571a33.28 33.28 0 0 0-20.48-7.021714h-5.778286a33.938286 33.938286 0 0 0-21.723428 15.36l-71.021715 122.88H64a31.963429 31.963429 0 0 0-32.036571 31.963429V790.893714C32.036571 808.521143 46.299429 822.857143 64 822.857143z m-30.72-64H97.28v-553.618286h130.56a32.036571 32.036571 0 0 0 28.16-15.945143l64-106.276571L460.8 198.217143a31.378286 31.378286 0 0 0 19.821714 7.021714h448l0.658286 553.618286zM293.156571 551.497143a64 64 0 1 0 0-128 64 64 0 0 0 0 128zM512 551.497143a64 64 0 1 0 0-128 64 64 0 0 0 0 128z m219.501714 0a64 64 0 1 0 0-128 64 64 0 0 0 0 128z"  horiz-adv-x="1024" />

    
    <glyph glyph-name="paper" unicode="&#59013;" d="M617.984 860.818286a30.061714 30.061714 0 0 0 22.381714-9.654857l252.123429-260.388572c6.217143-5.851429 9.728-13.970286 9.654857-22.454857l0.438857-5.12-0.438857-5.12c0.658286-3.657143 0.658286-7.314286 0-10.898286v-611.181714a31.963429 31.963429 0 0 0-32.036571-32.036571H188.489143a31.963429 31.963429 0 0 0-31.963429 32.036571V828.781714c0 17.700571 14.336 32.036571 32.036572 32.036572z m-72.338286-64H220.525714v-825.636572h617.618286V526.116571H577.682286a31.963429 31.963429 0 0 0-32.036572 31.963429V796.818286z m180.516572-584.338286c17.627429 0 31.963429-14.336 31.963428-32.036571a32.621714 32.621714 0 0 0-32.036571-31.963429H329.362286a32.621714 32.621714 0 0 0-32.036572 32.036571c0 17.627429 14.336 31.963429 32.036572 31.963429z m0 135.68a31.963429 31.963429 0 1 0 0-64H329.289143a31.963429 31.963429 0 1 0 0 64zM493.714286 483.84a31.963429 31.963429 0 1 0 0-64H329.362286a31.963429 31.963429 0 1 0 0 64z m115.858285 307.858286v-201.581715h196.461715L609.645714 791.625143z"  horiz-adv-x="1024" />

    
    <glyph glyph-name="phonecall-prohibit" unicode="&#59014;" d="M256.950857 841.435429c8.557714 0 16.749714-3.364571 22.674286-9.435429l206.116571-203.556571a30.72 30.72 0 0 0 9.581715-24.868572 31.378286 31.378286 0 0 0-12.8-23.698286l-128-94.72L624.64 209.92l90.258286 134.436571a31.378286 31.378286 0 0 0 23.698285 14.043429c9.435429 1.243429 18.944-2.048 25.6-8.996571l205.385143-208.603429c6.070857-5.851429 9.362286-13.970286 8.996572-22.381714a30.72 30.72 0 0 0-9.581715-23.04l-172.178285-164.498286-4.534857-3.218286-5.12-3.145143H768a690.541714 690.541714 0 0 0-493.421714 216.941715 739.84 739.84 0 0 0-227.84 486.4L46.445714 631.954286l0.292572 4.096V640l2.56 7.021714a23.04 23.04 0 0 0 4.461714 6.436572L234.276571 832a32.036571 32.036571 0 0 0 22.674286 9.508571zM256 768L109.421714 618.861714a686.08 686.08 0 0 1 210.578286-432.64 633.636571 633.636571 0 0 1 432.64-190.683428l138.24 132.461714-154.843429 154.843429-90.916571-135.021715-2.194286-2.340571-2.925714-1.462857h-29.403429L286.72 473.6v15.36a17.261714 17.261714 0 0 0 0 5.778286 19.163429 19.163429 0 0 0 0 6.363428 10.24 10.24 0 0 0 0 5.778286 22.381714 22.381714 0 0 0 0 5.12l127.341714 97.28L256 768z m395.556571 11.483429a179.2 179.2 0 0 0 248.32 0 175.396571 175.396571 0 0 0-124.196571-299.52 173.421714 173.421714 0 0 0-124.123429 51.2 175.981714 175.981714 0 0 0 0 248.393142z m25.6-75.483429a110.738286 110.738286 0 0 1 19.163429-128c34.816-34.377143 87.990857-42.130286 131.218286-19.236571z m98.523429 64c-19.017143-0.146286-37.595429-5.412571-53.76-15.36l151.04-151.698286a108.836571 108.836571 0 0 1-18.578286 133.12 108.763429 108.763429 0 0 1-78.701714 33.938286z"  horiz-adv-x="1024" />

    
    <glyph glyph-name="speedometer" unicode="&#59015;" d="M544.549303 491.154286l69.705143 59.099428a36.278857 36.278857 0 0 0 51.492571-4.534857 37.302857 37.302857 0 0 0-4.461714-52.077714l-57.124572-48.493714c10.752-17.115429 17.042286-37.376 17.042286-59.245715 0-60.708571-48.713143-110.08-108.909714-110.08a109.494857 109.494857 0 0 0-108.836572 110.153143c0 60.708571 48.713143 110.08 108.836572 110.08 11.264 0 22.089143-1.755429 32.182857-4.900571z m-32.182857-141.897143a36.498286 36.498286 0 0 1 36.278857 36.717714 36.498286 36.498286 0 0 1-36.352 36.644572 36.498286 36.498286 0 0 1-36.278857-36.644572c0-20.260571 16.237714-36.717714 36.278857-36.717714zM874.643017 22.893714l-0.219428-0.219428a36.571429 36.571429 0 1 0-49.225143 53.906285 438.857143 438.857143 0 1 1-625.371429-0.731428 36.571429 36.571429 0 0 0-50.834286-52.662857l-0.146285-0.146286a512 512 0 1 0 725.942857-0.365714l-0.146286 0.219428zM75.045303 344.649143a439.588571 439.588571 0 0 1 126.537143-273.993143l-51.931429-52.004571A514.56 514.56 0 0 0 514.341303 896h0.365714a514.633143 514.633143 0 0 0 514.413714-514.340571v-0.438858c-0.073143-141.677714-57.344-269.897143-149.942857-362.934857l-52.004571 51.931429a439.661714 439.661714 0 0 1 126.902857 274.432h-35.401143a36.571429 36.571429 0 0 0-36.571428 36.571428v0.365715a36.571429 36.571429 0 0 0 36.571428 36.571428h35.401143a439.149714 439.149714 0 0 1-101.888 247.076572l-25.965714-25.965715a36.571429 36.571429 0 0 0-51.712 0l-0.292572 0.292572a36.571429 36.571429 0 0 0 0 51.712l26.112 26.112a439.149714 439.149714 0 0 1-249.051428 103.570286v-35.401143a36.571429 36.571429 0 0 0-36.571429-36.571429h-0.365714a36.571429 36.571429 0 0 0-36.571429 36.571429v35.401143a439.149714 439.149714 0 0 1-249.051428-103.570286l26.038857-26.112a36.571429 36.571429 0 0 0 0-51.712l-0.219429-0.292572a36.571429 36.571429 0 0 0-51.712 0l-25.965714 25.965715a439.149714 439.149714 0 0 1-101.888-247.076572h60.708571a36.571429 36.571429 0 0 0 36.571429-36.571428v-0.365715a36.571429 36.571429 0 0 0-36.571429-36.571428h-60.708571z"  horiz-adv-x="1029" />

    
    <glyph glyph-name="settings-horizontal" unicode="&#59016;" d="M704.658286 205.092571c69.412571 0 129.609143-47.908571 145.261714-115.492571h100.498286a31.963429 31.963429 0 1 0 0-64H849.92a148.48 148.48 0 0 0-290.523429 0H44.178286a32.036571 32.036571 0 0 0 3.145143 64h512a149.138286 149.138286 0 0 0 145.334857 115.565714z m-0.658286-62.976a85.138286 85.138286 0 1 1 1.243429-170.276571 85.138286 85.138286 0 0 1-1.243429 170.276571zM285.769143 535.990857c71.094857 0 132.388571-50.249143 146.285714-119.954286h518.363429a31.963429 31.963429 0 1 0 0-64H430.08a148.48 148.48 0 0 0-289.28 0H44.178286a31.963429 31.963429 0 1 0 0 64h95.378285a149.138286 149.138286 0 0 0 146.212572 119.954286z m-0.365714-64.365714a85.138286 85.138286 0 1 1 1.243428-170.203429A85.138286 85.138286 0 0 1 285.403429 471.771429zM704.658286 860.306286c70.217143 0 130.779429-49.152 145.261714-117.833143h110.08c17.700571 0 32.036571-14.336 32.036571-32.036572a32.621714 32.621714 0 0 0-32.036571-31.963428H849.92a149.138286 149.138286 0 0 0-290.523429 0H54.418286a32.621714 32.621714 0 0 0-32.036572 32.036571c0 17.627429 14.336 31.963429 32.036572 31.963429h504.905143A148.48 148.48 0 0 0 704.658286 860.16z m0.658285-64.073143a85.138286 85.138286 0 1 1-1.316571-170.276572 85.138286 85.138286 0 0 1 1.316571 170.276572z"  horiz-adv-x="1024" />

    
    <glyph glyph-name="phone" unicode="&#59017;" d="M814.08 95.963429v-95.963429a64 64 0 0 0-63.634286-64H273.554286a64 64 0 0 0-63.634286 64v95.963429h604.16z m0 576.073142v-512H209.92v512h604.16zM750.445714 832c35.108571 0 63.634286-28.818286 63.634286-64v-31.963429H209.92V768c0 35.181714 28.525714 64 63.634286 64h476.891428zM273.554286 896A128 128 0 0 1 146.285714 768v-768c0-70.436571 57.270857-128 127.268572-128h476.891428A128 128 0 0 1 877.714286 0V562.102857 768A128 128 0 0 1 750.445714 896M512-32.036571a49.005714 49.005714 0 0 1 47.689143 48.054857 49.005714 49.005714 0 0 1-47.689143 47.981714 49.005714 49.005714 0 0 1-47.689143-47.981714c0-25.6 22.235429-48.054857 47.689143-48.054857z"  horiz-adv-x="1024" />

    
    <glyph glyph-name="star" unicode="&#59018;" d="M512.000731 895.992686c4.461682 0 8.923365-2.706266 10.532497-8.045657l151.916629-333.309619 338.35644-40.813423c10.825066 0 15.35989-14.482182 6.58281-21.138135L755.710991 255.997257l76.433739-368.637367a12.21477 12.21477 0 0 0-1.609131-10.532496 10.678781 10.678781 0 0 0-15.506175-2.559982L512.000731 62.901494l-303.028692-188.560939a10.678781 10.678781 0 0 0-15.506175 2.559981 12.21477 12.21477 0 0 0-1.609132 10.532497l76.43374 368.637366L4.612356 492.685852a11.995343 11.995343 0 0 0-4.022829 13.092478c1.462847 4.827394 5.778244 8.045657 10.605639 8.045657l338.35644 40.813423L501.395093 887.947029A10.97135 10.97135 0 0 0 512.000731 895.992686"  horiz-adv-x="1024" />

    
    <glyph glyph-name="play" unicode="&#59019;" d="M512 886.418286A503.003429 503.003429 0 0 0 1014.418286 384 502.418286 502.418286 0 1 0 512 886.418286z m0-64a438.418286 438.418286 0 1 1 0-876.836572A438.418286 438.418286 0 0 1 512 822.418286zM351.963429 626.541714a31.963429 31.963429 0 0 0 32.036571 0l374.418286-215.04h-1.974857a31.378286 31.378286 0 0 0 0-55.003428l-372.443429-215.04a33.28 33.28 0 0 0-16.018286-4.461715 37.741714 37.741714 0 0 0-15.945143 4.388572 33.28 33.28 0 0 0-16.091428 27.574857V599.04a33.28 33.28 0 0 0 16.091428 27.501714z m49.956571-81.92v-320L678.4 384l-276.48 160.621714z"  horiz-adv-x="1024" />

    
    <glyph glyph-name="refresh-lock" unicode="&#59020;" d="M609.426286 849.92c113.956571 0 206.774857-118.418286 218.916571-269.458286h103.058286c17.627429 0 31.963429-14.336 31.963428-31.963428v-588.214857a31.963429 31.963429 0 0 0-31.963428-31.963429H107.739429a31.963429 31.963429 0 0 0-32.036572 32.036571v588.068572c0 17.700571 14.336 32.036571 32.036572 32.036571H210.651429C222.939429 731.501714 315.684571 849.92 428.982857 849.92z m289.938285-333.458286H137.142857v-524.141714h762.221714V516.461714z m-239.981714-36.425143l5.778286-0.585142a32.036571 32.036571 0 0 0 26.258286-31.451429v-128a31.378286 31.378286 0 0 0-32.036572-31.378286h-128a31.378286 31.378286 0 0 0-31.378286 32.036572 32.621714 32.621714 0 0 0 32.036572 31.963428h64a147.821714 147.821714 0 0 1-74.898286 21.796572 145.261714 145.261714 0 1 1 145.261714-145.92c0 17.627429 14.336 31.963429 32.036572 31.963428 16.091429-1.901714 28.233143-15.725714 28.16-31.963428a209.261714 209.261714 0 1 0-99.181714 177.883428v42.276572a32.036571 32.036571 0 0 0 31.963428 31.378285z m-49.956571 305.883429H428.982857c-77.458286 0-143.36-91.501714-154.258286-205.458286h489.618286c-10.898286 113.956571-76.8 205.458286-154.843428 205.458286z"  horiz-adv-x="1024" />

    
    <glyph glyph-name="shield" unicode="&#59021;" d="M460.068571 869.595429L512 896l32.841143-14.628571s63.195429-36.498286 168.448-71.533715l16.091428-5.266285c78.994286-27.062857 135.533714-34.157714 159.451429-35.913143l12.8-0.658286 49.225143-3.657143v-504.685714c0-186.514286-393.728-387.657143-438.857143-387.657143-48.054857 0-420.937143 191.926857-438.198857 374.637714L73.142857 259.657143V764.342857l60.635429 4.315429c19.236571 1.974857 76.361143 9.581714 164.937143 35.913143A1331.2 1331.2 0 0 1 460.068571 869.595429z m66.779429-61.805715l-12.946286 7.094857-22.820571-11.556571a1414.802286 1414.802286 0 0 0-141.019429-58.514286l-30.500571-10.386285-39.131429-11.044572c-49.737143-13.385143-89.965714-21.357714-119.808-25.380571L146.285714 696.32V259.657143c0-98.962286 282.916571-302.811429 359.643429-314.002286L512-54.857143c61.952 0 349.110857 201.874286 364.982857 305.883429L877.714286 259.657143V696.173714l-6.582857 0.438857A708.315429 708.315429 0 0 0 728.649143 727.771429l-36.205714 11.922285-14.628572 4.900572a1121.865143 1121.865143 0 0 0-150.966857 63.195428zM483.254857 186.514286L278.235429 354.742857l61.44 69.485714L471.04 318.171429l246.125714 274.285714 73.874286-62.171429z"  horiz-adv-x="1024" />

    
    <glyph glyph-name="notification-outline" unicode="&#59022;" d="M340.626286-14.701714a31.963429 31.963429 0 0 0 40.374857 19.821714 501.76 501.76 0 0 1 281.6-3.876571 31.963429 31.963429 0 1 0 17.92-61.44 534.381714 534.381714 0 0 0-152.356572-21.065143 541.403429 541.403429 0 0 0-167.643428 25.6 32.621714 32.621714 0 0 0-19.894857 40.96zM527.579429 859.428571c17.627429 0 31.963429-14.336 31.963428-31.963428v-47.981714a286.061714 286.061714 0 0 0 270.701714-284.818286v-214.454857l111.981715-175.981715a31.378286 31.378286 0 0 0 0-32.621714 32.036571 32.036571 0 0 0-28.086857-16.018286H129.974857a30.72 30.72 0 0 0-28.086857 17.334858 30.061714 30.061714 0 0 0 0 32.621714L225.499429 280.868571V494.738286a286.061714 286.061714 0 0 0 270.043428 284.745143V827.611429A32.621714 32.621714 0 0 0 527.579429 859.428571zM543.451429 717.531429h-31.305143a222.72 222.72 0 0 1-228.498286-222.72v-225.28a18.578286 18.578286 0 0 0 0-5.778286 19.163429 19.163429 0 0 0 0-6.436572l-94.134857-133.12h661.211428l-84.553142 134.436572v6.436571a19.236571 19.236571 0 0 0 0 6.363429V494.738286a222.72 222.72 0 0 1-222.72 222.72z"  horiz-adv-x="1024" />

    
    <glyph glyph-name="panel" unicode="&#59023;" d="M509.44 886.418286A502.418286 502.418286 0 0 0 512-118.491429 503.076571 503.076571 0 0 0 7.68 384c0 277.211429 224.548571 502.052571 501.76 502.418286zM512 822.418286a438.418286 438.418286 0 1 1-3.803429-876.836572A438.418286 438.418286 0 0 1 512 822.418286z m200.338286-128a32.036571 32.036571 0 0 0 50.541714-39.058286L587.556571 430.738286a88.356571 88.356571 0 0 0-23.990857-118.930286c-23.259429-16.749714-53.174857-21.284571-80.384-12.288l-52.443428-67.218286a32.036571 32.036571 0 0 0-25.6-12.141714 31.963429 31.963429 0 0 0-24.941715 51.858286l52.443429 64A89.6 89.6 0 0 0 418.596571 384 91.501714 91.501714 0 0 0 512 475.501714c8.777143-0.292571 17.408-2.048 25.6-5.12zM525.458286 424.374857a43.52 43.52 0 1 1-32.036572-80.896 43.52 43.52 0 0 1 32.036572 80.896z m291.474285 198.948572l6.290286-0.585143a31.378286 31.378286 0 0 0 20.260572-13.458286c44.836571-66.56 68.681143-145.042286 68.534857-225.28a32.036571 32.036571 0 0 0-64 0 338.578286 338.578286 0 0 1-57.636572 189.44 31.963429 31.963429 0 0 0 8.996572 44.178286 31.378286 31.378286 0 0 0 23.844571 5.12zM278.966857 716.068571a402.578286 402.578286 0 0 0 370.614857 48.054858 32.109714 32.109714 0 0 0-22.381714-60.196572A332.8 332.8 0 0 1 512 722.578286 338.578286 338.578286 0 0 1 171.52 384a31.963429 31.963429 0 1 0-64 0 402.578286 402.578286 0 0 0 171.446857 332.141714z"  horiz-adv-x="1024" />

    
    <glyph glyph-name="structure" unicode="&#59024;" d="M29.476571 228.498286v-316.196572c0-17.627429 14.262857-31.963429 31.963429-31.963428h315.538286a31.963429 31.963429 0 0 1 31.963428 31.963428V228.498286a31.963429 31.963429 0 0 1-31.963428 31.963428h-128V354.596571h522.24V260.388571h-128a31.963429 31.963429 0 0 1-32.036572-31.963428v-316.196572c0-17.627429 14.336-31.963429 32.036572-31.963428h316.781714a31.963429 31.963429 0 0 1 32.036571 31.963428V228.498286a31.963429 31.963429 0 0 1-32.036571 31.963428h-128V384a32.621714 32.621714 0 0 1-32.036571 32.036571h-256v91.428572h128a32.621714 32.621714 0 0 1 32.036571 32.036571V855.771429a32.621714 32.621714 0 0 1-32.036571 31.963428H361.033143a32.621714 32.621714 0 0 1-32.036572-31.963428v-316.196572c0.365714-17.554286 14.482286-31.670857 32.036572-31.963428h128v-88.941715H206.043429l-5.12-3.876571-5.12-3.218286-3.803429-7.021714v-5.778286a17.92 17.92 0 0 1 0-5.778286 18.578286 18.578286 0 0 1 0-6.363428v-128H64a31.963429 31.963429 0 0 1-34.523429-30.061714z m901.12-284.16h-251.611428V196.461714h251.611428v-252.123428zM392.996571 823.588571H645.12v-252.123428H392.923429V823.588571zM93.330286 196.461714h251.611428v-252.123428h-251.611428V196.461714z"  horiz-adv-x="1024" />

    
    </font>
</defs>
</svg>
